<?xml version="1.0" encoding="utf-8"?>
<!-- Generator: Adobe Illustrator 16.0.4, SVG Export Plug-In . SVG Version: 6.00 Build 0)  -->
<!DOCTYPE svg PUBLIC "-//W3C//DTD SVG 1.1//EN" "http://www.w3.org/Graphics/SVG/1.1/DTD/svg11.dtd">
<svg version="1.1" id="Layer_1" xmlns="http://www.w3.org/2000/svg" xmlns:xlink="http://www.w3.org/1999/xlink" x="0px" y="0px"
	 width="50px" height="50px" viewBox="0 0 50 50" enable-background="new 0 0 50 50" xml:space="preserve">
<g>
	<path d="M16.38,34.538c1.755-0.093,2.864-0.666,3.298-1.706c0.186-0.441,0.205-0.913,0.145-1.371
		c0.404,0.213,0.921,0.411,1.455,0.411c0.104,0,0.207-0.007,0.311-0.022c0.541-0.082,0.999-0.394,1.323-0.897
		c0.149-0.232,0.082-0.542-0.15-0.691c-0.231-0.147-0.542-0.081-0.69,0.15c-0.172,0.267-0.373,0.409-0.631,0.45
		c-0.646,0.102-1.485-0.457-1.756-0.68c-0.088-0.074-0.193-0.103-0.3-0.106c-0.188-0.375-0.399-0.69-0.571-0.884
		c-1.988-2.224-2.072-4.053-2.074-4.081c-0.006-0.274-0.219-0.456-0.51-0.487c-0.275,0.006-0.494,0.233-0.49,0.51
		c0.002,0.088,0.068,2.196,2.328,4.724c0.42,0.473,1.055,1.716,0.689,2.592c-0.34,0.814-1.508,1.044-2.428,1.093
		c-0.275,0.015-0.487,0.25-0.473,0.524c0.014,0.268,0.233,0.475,0.498,0.475L16.38,34.538z"/>
	<path d="M16.252,23.985c-0.003-0.004,0.674-0.102,1.376,1.561c0.05,0.121,0.515,1.19,1.47,1.474
		c0.125,0.037,0.278,0.065,0.452,0.065c0.318,0,0.708-0.094,1.14-0.394c0.229-0.156,0.285-0.469,0.127-0.694
		c-0.156-0.229-0.469-0.284-0.694-0.127c-0.277,0.19-0.521,0.255-0.738,0.19c-0.425-0.123-0.743-0.689-0.832-0.899
		c-1.073-2.549-2.437-2.181-2.588-2.133c-0.262,0.087-0.417,0.374-0.33,0.637C15.72,23.927,15.987,24.069,16.252,23.985z"/>
	<path d="M20.985,21.111c-0.104,0.256,0.017,0.548,0.271,0.653l0.191,0.038c0.195,0,0.382-0.116,0.462-0.309
		c1.438-3.474,0.19-8.334,0.138-8.539c-0.07-0.268-0.34-0.434-0.609-0.356c-0.268,0.069-0.428,0.343-0.356,0.61
		C21.092,13.256,22.296,17.945,20.985,21.111z"/>
	<path d="M20.483,34.24c-0.271-0.041-0.528,0.143-0.571,0.416s0.144,0.529,0.416,0.572c0.021,0.002,1.884,0.316,2.373,2.18
		c0.059,0.225,0.262,0.373,0.483,0.373l0.127-0.018c0.268-0.07,0.426-0.344,0.355-0.609C23.014,34.667,20.586,34.257,20.483,34.24z"
		/>
	<path d="M21.339,38.646c-1.267,0.291-3.252-2.125-4.211-3.709c-0.144-0.236-0.45-0.31-0.687-0.168
		c-0.236,0.144-0.312,0.449-0.17,0.687c0.274,0.454,2.619,4.212,4.865,4.212c0.141,0,0.279-0.016,0.418-0.045
		c0.271-0.061,0.439-0.327,0.381-0.598C21.876,38.756,21.61,38.589,21.339,38.646z"/>
	<path d="M16.123,32.339c0.246,0,0.461-0.183,0.495-0.434c0.035-0.274-0.156-0.525-0.43-0.562c-1.09-0.145-1.634-2.082-1.764-2.884
		c0.227-3.501-1.021-4.793-1.076-4.847c-0.191-0.192-0.502-0.193-0.697-0.003c-0.196,0.189-0.201,0.505-0.016,0.704
		c0.01,0.011,0.995,1.101,0.787,4.134l0.005,0.107c0.021,0.143,0.542,3.502,2.628,3.779L16.123,32.339z"/>
	<path d="M18.328,23.416c-0.112,0.253,0.002,0.548,0.254,0.66l0.203,0.043c0.19,0,0.374-0.11,0.456-0.297
		c0.521-1.173-0.025-3.232-0.09-3.464L19.1,20.237c-1.307-2.208,0.459-4.431,0.534-4.524c0.101-0.124,0.125-0.28,0.093-0.425
		c0.17,0.197,0.354,0.395,0.569,0.593c0.097,0.089,0.218,0.133,0.34,0.133c0.136,0,0.269-0.054,0.367-0.16
		c0.188-0.203,0.175-0.52-0.026-0.707c-0.908-0.839-1.338-1.631-1.248-2.289c0.112-0.819,0.996-1.285,1.019-1.297
		c0.245-0.124,0.345-0.424,0.222-0.67c-0.124-0.246-0.424-0.348-0.671-0.224c-0.056,0.028-1.366,0.697-1.558,2.043
		c-0.104,0.724,0.141,1.475,0.714,2.243c-0.202-0.094-0.446-0.053-0.595,0.128c-0.094,0.114-2.254,2.812-0.656,5.605
		C18.348,21.239,18.634,22.726,18.328,23.416z"/>
	<path d="M23.28,23.255c-0.174,0.637-1.573,0.654-2.226,0.563c-0.266-0.029-0.526,0.152-0.565,0.425
		c-0.037,0.273,0.152,0.526,0.426,0.565c0.09,0.013,0.396,0.052,0.792,0.052c0.89,0,2.228-0.198,2.539-1.342
		c0.071-0.267-0.084-0.541-0.351-0.614C23.629,22.835,23.354,22.99,23.28,23.255z"/>
	<path d="M38.87,24.484c0.75-4.614-1.146-6.156-1.807-6.544c0.256-3.02-1.445-4.309-1.998-4.643
		c-0.049-0.554-0.205-1.074-0.484-1.554c-1.068-1.833-3.459-2.423-3.799-2.5c-0.786-0.819-1.625-1.241-2.508-1.241l-0.047,0.001
		c-1.518,0.025-2.677,1.278-3.226,2.004c-0.549-0.726-1.708-1.979-3.226-2.004l-0.047-0.001c-0.883,0-1.722,0.422-2.508,1.241
		c-0.34,0.077-2.73,0.667-3.8,2.5c-0.278,0.48-0.437,1-0.483,1.554c-0.553,0.334-2.254,1.623-1.998,4.642
		c-0.658,0.388-2.558,1.929-1.808,6.544c-0.185,0.345-1.351,2.647-0.729,4.854c0.145,0.509,0.386,0.963,0.693,1.376
		c-0.058,0.577-0.13,3.305,3.219,5.811c1.278,0.957,2.482,2.353,3.578,4.145l0.108,0.126c0.069,0.058,1.49,1.204,3.192,1.204
		c0.32,0,0.651-0.041,0.984-0.139c1.182-0.34,2.124-1.301,2.82-2.846c0.696,1.545,1.639,2.506,2.821,2.846
		c0.334,0.098,0.664,0.139,0.983,0.139c1.702-0.001,3.123-1.146,3.193-1.204l0.108-0.126c1.096-1.791,2.299-3.186,3.578-4.145
		c3.344-2.502,3.274-5.229,3.217-5.81c0.311-0.413,0.552-0.868,0.694-1.377C40.222,27.133,39.058,24.833,38.87,24.484z
		 M24.421,37.777c-0.601,1.762-1.444,2.812-2.512,3.121c-1.425,0.418-2.896-0.598-3.21-0.832c-1.148-1.861-2.422-3.323-3.783-4.344
		c-2.014-1.507-2.609-3.055-2.775-4.014c0.161,0.114,0.314,0.232,0.495,0.334l0.244,0.062c0.175,0,0.345-0.092,0.437-0.256
		c0.136-0.24,0.05-0.545-0.191-0.681c-2.455-1.372-2.014-3.871-1.52-5.264l0.232,0.064l0.112-0.013
		c0.27-0.062,0.437-0.331,0.375-0.6c-0.942-4.081,0.14-5.726,0.791-6.316c0.124,0.572,0.305,1.187,0.571,1.864
		c0.078,0.197,0.267,0.316,0.465,0.316l0.185-0.035c0.257-0.102,0.383-0.393,0.281-0.648c-1.462-3.694-0.343-5.401,0.394-6.065
		c0.045,0.24,0.09,0.48,0.172,0.73c0.067,0.211,0.264,0.346,0.476,0.346l0.153-0.024c0.264-0.085,0.406-0.367,0.321-0.63
		c-0.329-1.016-0.278-1.905,0.151-2.646c0.443-0.766,1.223-1.271,1.898-1.586c-0.043,0.198,0.035,0.409,0.217,0.524
		c0.23,0.147,0.541,0.081,0.689-0.153c0.857-1.35,1.747-2.033,2.641-2.033l0.026,0.001c1.317,0.02,2.386,1.491,2.663,1.909
		L24.421,37.777L24.421,37.777z M35.088,35.723c-1.362,1.021-2.635,2.483-3.783,4.346c-0.313,0.234-1.78,1.246-3.204,0.832
		c-1.068-0.309-1.914-1.358-2.517-3.121V10.91c0.397-0.615,1.465-1.887,2.661-1.906l0.027-0.001c0.895,0,1.782,0.685,2.642,2.033
		c0.149,0.234,0.46,0.301,0.69,0.153c0.181-0.115,0.258-0.326,0.217-0.524c0.676,0.316,1.453,0.82,1.896,1.585
		c0.43,0.74,0.48,1.631,0.151,2.646c-0.085,0.263,0.059,0.545,0.321,0.63l0.153,0.024c0.212,0,0.407-0.135,0.476-0.346
		c0.082-0.25,0.127-0.491,0.172-0.731c0.736,0.665,1.857,2.371,0.395,6.066c-0.102,0.256,0.024,0.547,0.281,0.648l0.184,0.035
		c0.199,0,0.387-0.119,0.465-0.316c0.269-0.676,0.447-1.291,0.572-1.862c0.65,0.59,1.732,2.234,0.791,6.314
		c-0.062,0.269,0.105,0.537,0.375,0.6l0.112,0.013l0.224-0.06c0.289,0.823,0.564,2.024,0.246,3.155
		c-0.248,0.885-0.84,1.593-1.756,2.104c-0.24,0.135-0.327,0.439-0.191,0.682c0.092,0.164,0.262,0.256,0.437,0.256l0.244-0.063
		c0.181-0.101,0.333-0.22,0.493-0.333C37.698,32.669,37.101,34.217,35.088,35.723z"/>
	<path d="M29.26,11.562c0.009,0.005,0.897,0.47,1.015,1.29c0.096,0.659-0.336,1.453-1.246,2.295
		c-0.202,0.188-0.215,0.504-0.027,0.707c0.1,0.106,0.232,0.16,0.367,0.16c0.121,0,0.242-0.044,0.34-0.133
		c0.214-0.199,0.398-0.396,0.57-0.592c-0.033,0.145-0.01,0.301,0.093,0.425c0.019,0.022,1.848,2.304,0.534,4.524l-0.051,0.12
		c-0.063,0.23-0.611,2.291-0.09,3.464c0.082,0.187,0.266,0.297,0.457,0.297l0.202-0.043c0.252-0.112,0.366-0.408,0.254-0.66
		c-0.276-0.621-0.075-1.976,0.124-2.729c1.598-2.794-0.564-5.491-0.658-5.605c-0.146-0.18-0.392-0.222-0.594-0.128
		c0.574-0.768,0.818-1.519,0.715-2.243c-0.191-1.346-1.502-2.015-1.558-2.043c-0.247-0.123-0.547-0.022-0.671,0.224
		C28.913,11.138,29.013,11.438,29.26,11.562z"/>
	<path d="M33.678,33.54c-0.92-0.049-2.089-0.276-2.428-1.093c-0.365-0.877,0.271-2.12,0.69-2.592
		c2.26-2.526,2.324-4.636,2.326-4.724c0.006-0.275-0.213-0.501-0.486-0.508c-0.283-0.014-0.504,0.211-0.514,0.485
		c0,0.019-0.08,1.852-2.072,4.081c-0.174,0.192-0.385,0.509-0.572,0.883c-0.105,0.004-0.212,0.033-0.301,0.107
		c-0.271,0.223-1.105,0.78-1.754,0.68c-0.26-0.041-0.461-0.185-0.631-0.45c-0.15-0.232-0.461-0.3-0.691-0.15
		c-0.232,0.149-0.301,0.459-0.15,0.691c0.324,0.505,0.782,0.815,1.323,0.897c0.104,0.017,0.207,0.022,0.31,0.022
		c0.535,0,1.051-0.197,1.455-0.411c-0.061,0.458-0.039,0.928,0.145,1.37c0.434,1.041,1.543,1.614,3.299,1.707l0.025,0.001
		c0.266,0,0.485-0.207,0.5-0.475C34.165,33.79,33.953,33.555,33.678,33.54z"/>
	<path d="M30.622,26.062c-0.219,0.062-0.46,0.002-0.738-0.191c-0.225-0.158-0.539-0.102-0.695,0.127
		c-0.156,0.227-0.101,0.538,0.127,0.695c0.433,0.299,0.821,0.393,1.141,0.393c0.174,0,0.326-0.027,0.451-0.064
		c0.955-0.282,1.421-1.354,1.47-1.471c0.681-1.615,1.325-1.562,1.373-1.565c0.259,0.074,0.522-0.07,0.608-0.323
		c0.086-0.263-0.056-0.546-0.316-0.633c-0.153-0.05-1.514-0.418-2.588,2.135C31.366,25.371,31.046,25.938,30.622,26.062z"/>
	<path d="M28.558,21.803l0.191-0.038c0.255-0.105,0.376-0.397,0.271-0.653c-1.309-3.16-0.106-7.855-0.096-7.902
		c0.07-0.268-0.09-0.541-0.357-0.61c-0.269-0.076-0.539,0.09-0.608,0.356c-0.054,0.205-1.3,5.065,0.138,8.539
		C28.176,21.687,28.36,21.803,28.558,21.803z"/>
	<path d="M29.679,35.229c0.272-0.043,0.458-0.299,0.415-0.571c-0.044-0.273-0.307-0.457-0.571-0.416
		c-0.104,0.017-2.531,0.427-3.186,2.914c-0.07,0.267,0.089,0.54,0.355,0.61l0.127,0.017c0.223,0,0.426-0.148,0.483-0.373
		C27.788,35.568,29.592,35.242,29.679,35.229z"/>
	<path d="M33.563,34.77c-0.233-0.142-0.543-0.068-0.687,0.168c-0.959,1.584-2.949,4.004-4.211,3.709
		c-0.271-0.058-0.537,0.109-0.597,0.379c-0.061,0.271,0.109,0.537,0.379,0.598c0.14,0.029,0.277,0.045,0.419,0.045
		c2.247,0,4.591-3.758,4.864-4.212C33.875,35.219,33.8,34.912,33.563,34.77z"/>
	<path d="M37.366,24.314c0.191-0.196,0.188-0.509-0.004-0.702c-0.195-0.195-0.512-0.195-0.707,0
		c-0.055,0.054-1.303,1.346-1.075,4.847c-0.123,0.758-0.677,2.739-1.765,2.884c-0.272,0.037-0.465,0.288-0.43,0.562
		c0.034,0.251,0.249,0.434,0.495,0.434l0.067-0.004c2.086-0.278,2.606-3.638,2.628-3.78l0.005-0.106
		C36.375,25.44,37.341,24.344,37.366,24.314z"/>
	<path d="M29.091,24.809c0.273-0.039,0.464-0.292,0.426-0.565c-0.041-0.274-0.3-0.461-0.565-0.425
		c-0.423,0.061-2.034,0.141-2.228-0.563c-0.072-0.267-0.346-0.42-0.613-0.351c-0.268,0.073-0.424,0.348-0.352,0.614
		c0.312,1.144,1.648,1.342,2.54,1.342C28.692,24.86,29.001,24.821,29.091,24.809z"/>
</g>
</svg>
