<?xml version="1.0" encoding="utf-8"?>
<!-- Generator: Adobe Illustrator 17.1.0, SVG Export Plug-In . SVG Version: 6.00 Build 0)  -->
<!DOCTYPE svg PUBLIC "-//W3C//DTD SVG 1.1//EN" "http://www.w3.org/Graphics/SVG/1.1/DTD/svg11.dtd">
<svg version="1.1" id="Capa_1" xmlns="http://www.w3.org/2000/svg" xmlns:xlink="http://www.w3.org/1999/xlink" x="0px" y="0px"
	 width="1000px" height="1000px" viewBox="0 0 1000 1000" enable-background="new 0 0 1000 1000" xml:space="preserve">
<path d="M961.501,173.449H35.491c-14.885,0-26.995,12.11-26.995,26.995v575.755c0,14.885,12.11,26.995,26.995,26.995h238.095v77.362
	c0,6.625,5.37,11.995,11.995,11.995h425.83c6.625,0,11.995-5.371,11.995-11.995v-77.362h238.095
	c14.885,0,26.995-12.11,26.995-26.995V200.444C988.496,185.56,976.386,173.449,961.501,173.449z M958.496,773.194h-920V203.449h920
	V773.194z"/>
<path d="M113.544,670.052c8.284,0,15-6.716,15-15v-333.46c0-8.284-6.716-15-15-15s-15,6.716-15,15v333.46
	C98.544,663.336,105.26,670.052,113.544,670.052z"/>
<path d="M369.437,670.052c8.284,0,15-6.716,15-15v-333.46c0-8.284-6.716-15-15-15s-15,6.716-15,15v333.46
	C354.437,663.336,361.153,670.052,369.437,670.052z"/>
<path d="M147.13,292.211h188.721c8.284,0,15-6.716,15-15s-6.716-15-15-15H147.13c-8.284,0-15,6.716-15,15
	S138.846,292.211,147.13,292.211z"/>
<path d="M147.13,714.433h188.721c8.284,0,15-6.716,15-15s-6.716-15-15-15H147.13c-8.284,0-15,6.716-15,15
	S138.846,714.433,147.13,714.433z"/>
<path d="M658.74,292.211H847.46c8.284,0,15-6.716,15-15s-6.716-15-15-15H658.74c-8.284,0-15,6.716-15,15
	S650.456,292.211,658.74,292.211z"/>
<path d="M883.448,460.141c8.284,0,15-6.716,15-15V317.994c0-8.284-6.716-15-15-15s-15,6.716-15,15v127.146
	C868.448,453.425,875.164,460.141,883.448,460.141z"/>
<path d="M434.923,504.521h127.146c8.284,0,15-6.716,15-15s-6.716-15-15-15H434.923c-8.284,0-15,6.716-15,15
	S426.639,504.521,434.923,504.521z"/>
<path d="M883.448,674.25c8.284,0,15-6.716,15-15V532.104c0-8.284-6.716-15-15-15s-15,6.716-15,15V659.25
	C868.448,667.534,875.164,674.25,883.448,674.25z"/>
<path d="M658.74,716.832H847.46c8.284,0,15-6.716,15-15s-6.716-15-15-15H658.74c-8.284,0-15,6.716-15,15
	S650.456,716.832,658.74,716.832z"/>
<path d="M658.74,504.521H847.46c8.284,0,15-6.716,15-15s-6.716-15-15-15H658.74c-8.284,0-15,6.716-15,15
	S650.456,504.521,658.74,504.521z"/>
</svg>
