<?xml version="1.0" encoding="utf-8"?>
<!-- Generator: Adobe Illustrator 15.0.0, SVG Export Plug-In . SVG Version: 6.00 Build 0)  -->
<!DOCTYPE svg PUBLIC "-//W3C//DTD SVG 1.1//EN" "http://www.w3.org/Graphics/SVG/1.1/DTD/svg11.dtd">
<svg version="1.1" id="Capa_1" xmlns="http://www.w3.org/2000/svg" xmlns:xlink="http://www.w3.org/1999/xlink" x="0px" y="0px"
	 width="600px" height="600px" viewBox="0 0 600 600" enable-background="new 0 0 600 600" xml:space="preserve">
<g>
	<path fill="#222221" d="M350.604,318.762c-7.532,0.67-15.103,1.278-22.667,1.333c-1.655,0.012-2.772,0.848-3.365,1.971
		c-1.582,0.708-2.632,2.298-1.825,4.427c2.244,5.919,5.686,10.875,12.178,12.321c6.315,1.407,13.273-0.883,19.409-2.194
		c2.238-0.479,3.205-2.885,2.794-4.921c-0.688-3.41-1.462-6.73-2.667-10C353.881,320.126,352.461,318.597,350.604,318.762z
		 M336.15,328.133c-0.34,0.465-0.899,1.05-1.438,1.684c-0.792-0.459-1.529-1.054-2.19-1.832c1.284-0.044,2.568-0.101,3.853-0.168
		C336.299,327.921,336.227,328.028,336.15,328.133z M337.988,330.937c-0.428-0.065-0.849-0.15-1.257-0.265
		c0.102-0.124,0.184-0.227,0.209-0.26c0.626-0.842,1.244-1.689,1.858-2.54c0.05-0.068,0.096-0.14,0.146-0.209
		c0.43-0.026,0.858-0.061,1.288-0.089C339.466,328.683,338.714,329.801,337.988,330.937z M340.294,331.072
		c0.812-1.238,1.645-2.462,2.497-3.674c0.831-0.062,1.662-0.132,2.493-0.198c-1.008,1.207-1.965,2.455-2.892,3.729
		C341.682,331.01,340.979,331.062,340.294,331.072z M345.235,330.473c0.842-1.085,1.715-2.145,2.617-3.18
		c0.234,0.819,0.456,1.641,0.657,2.468C347.416,330.021,346.322,330.261,345.235,330.473z"/>
	<path fill="#222221" d="M391.413,334.492c0.626,1.699,1.96,2.926,3.856,2.937c7.768,0.046,15.629,0.514,23.063-2.143
		c1.871-0.669,3.646-2.787,2.794-4.921c-2.093-5.243-4.892-9.463-10.456-11.279c-5.219-1.703-11.363-0.084-16.734-0.324
		c-1.358-0.061-2.348,0.456-2.989,1.244c-1.51,0.776-2.628,2.37-2.201,4.486C389.435,327.902,390.208,331.223,391.413,334.492z
		 M409.708,327.511c0.591,0.355,1.118,0.8,1.593,1.335c-0.879,0.154-1.762,0.263-2.647,0.354
		C409.001,328.635,409.354,328.072,409.708,327.511z M406.275,326.492c0.556,0.043,1.073,0.126,1.556,0.248
		c-0.555,0.877-1.106,1.754-1.629,2.65c-0.685,0.035-1.369,0.062-2.056,0.078C404.847,328.47,405.558,327.479,406.275,326.492z
		 M402.646,326.552c0.39-0.018,0.779-0.03,1.168-0.048c-0.712,0.989-1.413,1.987-2.105,2.99c-0.399,0-0.798,0.004-1.197,0
		C401.181,328.483,401.898,327.507,402.646,326.552z M400.051,326.66c-0.664,0.898-1.299,1.818-1.884,2.774
		c-0.261-0.883-0.501-1.771-0.723-2.663C398.314,326.748,399.183,326.702,400.051,326.66z"/>
	<path fill="#222221" d="M232.974,420.587c-13.067,2.65-20.042,15.072-17.532,27.409c0.461,11.446,11.598,16.951,22.309,15.738
		c12.547-1.422,23.334-10.983,22.024-24.311C258.416,425.597,246.098,417.926,232.974,420.587z M251.808,439.922
		c-1.72-0.195-3.452-0.141-5.192,0.009c-0.146-0.458-0.328-0.905-0.548-1.337c1.544-0.914,3.137-1.716,4.868-2.172
		C251.355,437.507,251.647,438.679,251.808,439.922z M247.572,431.421c0.984,0.913,1.824,1.995,2.508,3.207
		c-1.801,0.535-3.456,1.365-5.08,2.311c-0.346-0.437-0.725-0.853-1.135-1.237C244.98,434.176,246.188,432.725,247.572,431.421z
		 M234.297,428.496c0.413-0.117,0.822-0.2,1.232-0.282c0.115,1.301,0.148,2.604,0.142,3.909c-0.395,0.09-0.786,0.19-1.171,0.309
		c-0.357-1.22-0.646-2.461-0.922-3.703C233.817,428.65,234.05,428.566,234.297,428.496z M231.695,429.442
		c0.283,1.245,0.587,2.483,0.951,3.701c-0.332,0.159-0.655,0.331-0.969,0.518c-0.841-0.93-1.643-1.893-2.404-2.887
		C230.02,430.277,230.828,429.833,231.695,429.442z M227.691,431.992c0.754,0.982,1.541,1.938,2.367,2.861
		c-0.147,0.135-0.283,0.283-0.421,0.429c-1.269-0.406-2.503-0.866-3.702-1.397C226.459,433.213,227.031,432.571,227.691,431.992z
		 M224.799,435.572c1.165,0.529,2.361,0.994,3.585,1.406c-0.151,0.275-0.29,0.562-0.413,0.861c-1.322-0.186-2.64-0.404-3.945-0.676
		C224.247,436.615,224.511,436.087,224.799,435.572z M223.408,439.062c1.341,0.279,2.689,0.518,4.046,0.716
		c-0.038,0.37-0.048,0.74-0.028,1.107c-1.469,0.268-2.948,0.509-4.425,0.63C223.068,440.672,223.211,439.855,223.408,439.062z
		 M223.436,446.428c0.034-0.783-0.138-1.432-0.427-1.977c-0.031-0.323-0.028-0.637-0.042-0.955c1.61-0.126,3.223-0.382,4.824-0.667
		c0.186,0.599,0.426,1.185,0.721,1.746c-1.648,0.89-3.355,1.664-5.066,2.436C223.442,446.817,223.428,446.631,223.436,446.428z
		 M223.939,450.172c0.061-0.372,0.059-0.773-0.008-1.197c1.905-0.86,3.814-1.708,5.648-2.703c0.226,0.304,0.461,0.597,0.705,0.876
		c0.223,0.254,0.456,0.492,0.697,0.718c-1.824,1.649-3.734,3.202-5.578,4.827C224.783,451.975,224.275,451.146,223.939,450.172z
		 M226.899,454.034c1.886-1.658,3.841-3.241,5.698-4.934c0.18,0.111,0.357,0.225,0.541,0.325c-0.951,1.991-1.659,4.105-2.311,6.235
		C229.357,455.358,228.025,454.813,226.899,454.034z M237.059,455.714c-1.439,0.231-2.871,0.307-4.235,0.215
		c0.589-1.954,1.245-3.897,2.124-5.72c0.953,0.307,1.936,0.479,2.912,0.501C237.537,452.365,237.3,454.039,237.059,455.714z
		 M237.652,432.053c-0.002-1.374-0.041-2.745-0.162-4.117c0.947-0.064,1.875-0.033,2.776,0.081c-0.711,1.369-1.31,2.805-1.83,4.271
		C238.184,432.188,237.924,432.104,237.652,432.053z M239.127,455.283c0.229-1.599,0.466-3.194,0.805-4.77
		c0.229-0.045,0.461-0.073,0.685-0.135c0.472,1.313,0.837,2.661,1.163,4.021C240.913,454.752,240.023,455.046,239.127,455.283z
		 M240.182,433.355c0.584-1.693,1.277-3.347,2.129-4.907c1.321,0.381,2.557,0.962,3.676,1.714c-1.375,1.313-2.577,2.774-3.697,4.303
		C241.623,434.025,240.916,433.646,240.182,433.355z M243.621,453.545c-0.33-1.319-0.703-2.623-1.164-3.9
		c0.363-0.194,0.719-0.406,1.053-0.655c1.129,0.839,2.306,1.608,3.545,2.272C246.016,452.139,244.854,452.899,243.621,453.545z
		 M248.578,449.798c-1.262-0.633-2.457-1.377-3.598-2.203c0.46-0.56,0.871-1.185,1.203-1.897c1.43,0.518,2.897,0.918,4.357,1.346
		C250.014,448.036,249.346,448.954,248.578,449.798z M251.332,445.189c-1.504-0.448-3.021-0.852-4.5-1.378
		c0.131-0.646,0.179-1.287,0.145-1.917c1.654-0.135,3.302-0.174,4.938,0.052C251.879,443.087,251.669,444.166,251.332,445.189z"/>
	<path fill="#222221" d="M186.445,419.957c-14.484,0.415-23.617,13.306-21.366,27.034c0.019,0.114,0.058,0.205,0.083,0.312
		c0.783,8.501,9.498,14.198,17.898,15.569c11.676,1.906,23.291-3.952,24.898-16.434
		C209.738,432.629,201.129,419.536,186.445,419.957z M185.618,428.043c0.329,1.705,0.562,3.43,0.952,5.123
		c-0.222,0.028-0.443,0.055-0.665,0.1c-0.13,0.02-0.254,0.053-0.382,0.078l-0.025,0.006c-0.274,0.055-0.545,0.126-0.811,0.208
		c-0.787-1.575-1.469-3.2-2.197-4.808C183.482,428.417,184.526,428.178,185.618,428.043z M180.645,429.501
		c0.746,1.632,1.441,3.285,2.234,4.892c-0.1,0.061-0.201,0.115-0.297,0.181c-0.189,0.112-0.355,0.253-0.537,0.374l-4.191-3.668
		C178.703,430.592,179.639,429.995,180.645,429.501z M176.391,432.65c1.191,1.042,2.382,2.084,3.573,3.127
		c-1.665-0.544-3.365-0.936-5.093-1.219C175.314,433.875,175.835,433.247,176.391,432.65z M172.644,441.159
		c0.132-1.693,0.557-3.291,1.218-4.758c2.012,0.289,4.005,0.712,5.922,1.385c-0.09,0.188-0.174,0.379-0.249,0.572
		c-2.319,0.797-4.55,1.826-6.683,3.097C172.787,441.354,172.718,441.254,172.644,441.159z M178.995,440.683
		c-0.03,0.344-0.039,0.69-0.034,1.036c-1.859,1.002-3.779,1.885-5.675,2.806c0.003-0.011,0.004-0.021,0.007-0.033
		c0.092-0.362,0.133-0.707,0.135-1.036C175.219,442.358,177.072,441.428,178.995,440.683z M173.09,446.799
		c2.025-1.014,4.105-1.931,6.121-2.961c0.043,0.202,0.083,0.404,0.137,0.604c-1.871,1.633-3.628,3.381-5.363,5.154
		C173.48,448.746,173.172,447.81,173.09,446.799z M175.229,451.184c1.581-1.617,3.172-3.22,4.85-4.735
		c0.01,0.021,0.018,0.043,0.028,0.064c0.195,0.413,0.423,0.795,0.679,1.147c-1.207,1.679-2.414,3.357-3.58,5.065
		C176.465,452.269,175.799,451.753,175.229,451.184z M182.344,454.741c-1.184-0.262-2.312-0.63-3.357-1.088
		c1.051-1.535,2.133-3.048,3.221-4.558c0.467,0.366,0.959,0.696,1.494,0.953C183.272,451.619,182.809,453.18,182.344,454.741z
		 M184.328,455.079c0.436-1.455,0.865-2.911,1.268-4.374c0.424,0.099,0.854,0.179,1.289,0.222c0.1,1.437,0.211,2.872,0.385,4.301
		C186.287,455.247,185.3,455.195,184.328,455.079z M199.919,440.276c-1.097-0.003-2.199,0.053-3.3,0.1
		c-0.211-0.832-0.611-1.632-1.157-2.365c1.167-0.538,2.343-1.056,3.531-1.543C199.426,437.675,199.729,438.958,199.919,440.276z
		 M198.201,434.642c-1.412,0.579-2.808,1.195-4.189,1.842c-0.346-0.291-0.709-0.566-1.094-0.812
		c-0.004-0.006-0.008-0.012-0.012-0.018c-0.072-0.09-0.15-0.158-0.225-0.242c1.217-1.21,2.463-2.377,3.844-3.382
		C197.178,432.816,197.729,433.7,198.201,434.642z M192.143,428.78c1.113,0.448,2.104,1.063,2.977,1.808
		c-1.32,0.989-2.533,2.11-3.712,3.276C191.764,432.172,192.058,430.481,192.143,428.78z M187.625,427.924
		c0.91,0.006,1.752,0.119,2.559,0.285c-0.039,1.723-0.341,3.438-0.703,5.136c-0.281-0.077-0.566-0.143-0.855-0.183
		C188.188,431.438,187.945,429.673,187.625,427.924z M189.26,455.087c-0.174-1.378-0.288-2.763-0.382-4.15
		c0.249-0.022,0.495-0.052,0.741-0.091c0.759-0.121,1.473-0.34,2.137-0.634c0.456,1.322,0.938,2.634,1.488,3.917
		C191.996,454.607,190.646,454.92,189.26,455.087z M195.043,453.282c-0.578-1.342-1.069-2.722-1.541-4.109
		c0.34-0.262,0.658-0.545,0.951-0.851c1.004,1.033,2.053,2.026,3.08,3.038C196.816,452.118,195.973,452.754,195.043,453.282z
		 M198.748,449.752c-1.031-1.011-2.08-2.007-3.079-3.049c0.235-0.401,0.45-0.816,0.617-1.253c1.19,0.493,2.389,0.962,3.599,1.401
		C199.659,447.934,199.262,448.892,198.748,449.752z M200.109,444.816c-1.121-0.409-2.231-0.845-3.332-1.309
		c0.051-0.378,0.084-0.76,0.084-1.147c1.088-0.051,2.177-0.104,3.258-0.087C200.165,443.117,200.153,443.967,200.109,444.816z"/>
	<path fill="#222221" d="M417.15,217.225c24.289-14.034,44.539-34.464,67.691-50.242c8.834,7.195,22.828-3.749,29.923-10.06
		c1.282-1.143,1.562-3.418,0.625-4.848c-6.372-9.711-14.181-18.323-21.292-27.477c-1.036-1.333-3.505-1.534-4.848-0.625
		c-5.968,4.041-12.834,6.473-18.369,11.196c-6.975,5.953-3.274,14.121-2.278,21.591c0.003,0.026,0.014,0.049,0.018,0.076
		c-16.601,14.605-37.689,24.151-56.538,35.355c-16.745,9.953-33.933,19.671-49.275,31.74c-0.125,0-0.239-0.017-0.371-0.006
		c-3.072,0.257-6.147,0.479-9.223,0.688c-0.18-0.522-0.483-1.036-0.948-1.517c-3.118-3.222-5.471-7.093-8.688-10.223
		c-0.412-0.892-1.236-1.592-2.578-1.807c-8.008-1.279-16.11,0.144-24.175-0.338c-6.202-0.37-12.249-1.1-18.355-0.892
		c-3.578-9.99-8.07-20.052-16.369-26.992c-8.929-7.468-21.07-9.151-32.295-7.491c-19.168,2.834-44.076,15.084-45.777,36.647
		c-6.646,0.007-13.293,0.083-19.938,0.346c-1.043-0.555-2.335-0.644-3.673,0.123c-14.493,8.307-30.456,15.551-42.31,27.626
		c-0.329,0.335-0.558,0.689-0.742,1.05c-0.998,0.591-1.639,1.681-1.43,3.278c1.097,8.34,1.197,16.762,2.644,25.063
		c0.332,1.907,1.628,2.792,3.069,2.887c11.218,7.624,22.415,15.287,34.4,21.611c-1.945,0.569-3.809,1.295-5.516,2.278
		c-5.44,3.135-4.965,9.547-3.606,14.902c-1.515,0.317-3.032,0.632-4.554,0.901c-2.342,0.415-3.072,2.932-2.794,4.921
		c0.669,4.783,2.47,9.294,3.5,14c0.03,0.142,0.085,0.258,0.126,0.388c-10.489,5.664-21.204,11.357-32.248,15.726
		c-7.696,3.044-17.539,5.981-22.473,13.116c-2.141,3.098-1.404,7.164,0.652,10.087c-4.588,0.867-9.18,1.681-13.867,1.787
		c-1.629,0.037-3.581,1.179-3.857,2.937c-0.784,4.998-0.349,9.836,3.591,13.04c-4.292,2.934-7.7,6.952-9.759,12.127
		c-4.117,10.344,3.326,20.001,9.175,27.793c7.522,10.022,16.597,18.966,23.419,29.493c4.273,6.596,7.885,13.207,15.871,15.618
		c5.221,1.576,11.127,0.707,16.471,0.686c6.959-0.028,13.918,0.291,20.873,0.491c14.15,0.406,28.317-0.038,42.47-0.049
		c14.131-0.012,28.082,0.978,42.169,1.8c12.605,0.735,25.266-2.045,37.752,0.354c6.557,1.31,30.141-4.024,41.705-10.706
		c6.504-3.758,11.18-8.942,15.161-14.738c0.753,0.392,1.655,0.56,2.689,0.346c16.027-3.314,33.181,0.747,49.429-0.084
		c9.236-0.473,18.219-1.139,27.45-0.253c6.791,0.651,13.21,0.242,19.098-3.51c6.827-4.351,11.768-12.174,16.222-18.744
		c5.18-7.64,9.743-15.759,15.673-22.862c8.422-10.087,17.476-23.974,6.356-34.898c0.446-4.05,0.01-7.865-0.767-11.902
		c-0.345-1.794-2.178-2.848-3.857-2.937c-9.042-0.479-18.041-1.799-27.061-2.328c-11.677-28.414-35.026-53.941-60.694-70.545
		c-0.455-0.516-1.081-0.887-1.865-1.043c-0.677-0.223-1.329-0.229-1.927-0.07c-5.188,0.105-10.132-1.065-15.199-2.135
		c-5.584-1.18-11.238-1.513-16.93-1.7c-0.283-0.01-0.566-0.01-0.849-0.019c1-1.544,2.048-3.06,3.187-4.499
		c0.003-0.004,0.005-0.008,0.008-0.012c2.078-0.26,4.154-0.569,6.227-0.959c2.396-0.451,3.163-2.413,2.787-4.256
		c3.2-7.065,4.556-14.915,5.149-22.602c0.148-1.925-0.878-3.124-2.242-3.604c4.436-3.744,9.549-6.79,14.514-9.606
		C397.356,227.241,407.542,222.777,417.15,217.225z M505.381,151.671c0.424,0.585,0.854,1.165,1.269,1.758
		c-0.602,0.516-1.27,1.072-1.976,1.642C504.891,153.933,505.127,152.8,505.381,151.671z M503.823,149.546
		c-0.58,2.424-1.082,4.862-1.487,7.323c-0.935,0.683-1.907,1.347-2.887,1.948c0.751-3.94,1.628-7.855,2.469-11.777
		C502.562,147.87,503.193,148.708,503.823,149.546z M500.306,144.978c-0.916,4.37-1.906,8.725-2.748,13.109
		c-0.613-0.6-1.225-1.2-1.842-1.797c0.648-4.557,1.688-9.027,2.862-13.478C499.157,143.532,499.731,144.254,500.306,144.978z
		 M497.022,140.896c-1.221,4.531-2.312,9.078-3.052,13.701c-0.665-0.643-1.331-1.285-1.993-1.93
		c0.926-4.541,2.502-8.909,3.742-13.375C496.155,139.826,496.588,140.362,497.022,140.896z M491.933,134.64
		c0.738,0.914,1.482,1.822,2.225,2.733c-1.182,4.58-2.808,9.034-3.855,13.639c-0.507-0.503-1.017-1.004-1.517-1.513
		c0.087-1,0.172-2.001,0.332-2.987C489.771,142.49,490.746,138.535,491.933,134.64z M487.916,134.006
		c0.818-0.435,1.638-0.866,2.441-1.325c0.063,0.08,0.128,0.159,0.192,0.239c-0.143,0.113-0.268,0.257-0.335,0.474
		c-1.129,3.62-2.025,7.273-2.744,10.997c-0.194,1.003-0.298,2.139-0.396,3.306c-0.474-0.5-0.96-0.99-1.424-1.5
		C486.102,142.07,486.804,138.005,487.916,134.006z M483.665,136.259c0.609-0.327,1.224-0.646,1.837-0.967
		c-0.725,2.933-1.24,5.901-1.62,8.9c-0.503-0.588-1.003-1.176-1.486-1.779C482.612,140.333,483.078,138.285,483.665,136.259z
		 M481.223,137.634c-0.208,0.839-0.394,1.682-0.543,2.53c-0.373-0.511-0.759-1.012-1.116-1.536
		C480.105,138.279,480.667,137.96,481.223,137.634z M476.881,162.806c-0.146,0.104-0.287,0.211-0.433,0.314
		c-0.059-0.639-0.171-1.275-0.35-1.906C476.259,161.866,476.532,162.39,476.881,162.806z M474.337,162.427
		c0.132,0.692,0.182,1.393,0.188,2.096c-0.727,0.531-1.459,1.053-2.182,1.591c0.019-0.149,0.037-0.298,0.056-0.446
		c0.073-0.589-0.315-0.891-0.769-0.936C472.545,163.978,473.445,163.208,474.337,162.427z M468.15,167.523
		c0.759-0.585,1.496-1.196,2.242-1.797c-0.084,0.676-0.162,1.353-0.222,2.028c-0.681,0.514-1.364,1.022-2.042,1.54
		C468.14,168.705,468.147,168.115,468.15,167.523z M464.031,170.599c0.708-0.508,1.404-1.029,2.103-1.548
		c-0.01,0.604-0.025,1.208-0.047,1.812c-0.725,0.56-1.456,1.107-2.178,1.672C463.947,171.889,463.986,171.244,464.031,170.599z
		 M459.668,173.623c0.766-0.514,1.515-1.047,2.271-1.572c-0.043,0.715-0.088,1.428-0.136,2.142
		c-0.712,0.562-1.426,1.119-2.136,1.683V173.623z M457.668,174.945v2.519c-0.426,0.339-0.853,0.675-1.277,1.015
		c0.002-0.893-0.014-1.785-0.03-2.68C456.799,175.517,457.232,175.229,457.668,174.945z M451.765,178.683
		c0.881-0.538,1.757-1.084,2.63-1.633c0.021,1.012,0.026,2.024-0.011,3.033c-0.892,0.714-1.783,1.426-2.674,2.139
		C451.709,181.043,451.741,179.863,451.765,178.683z M449.749,179.903c-0.02,1.296-0.031,2.589,0.012,3.88
		c-0.847,0.679-1.694,1.357-2.543,2.034c-0.102-1.421-0.185-2.845-0.234-4.269C447.909,181.005,448.829,180.454,449.749,179.903z
		 M443.601,183.515c0.477-0.273,0.949-0.553,1.424-0.828c0.079,1.547,0.187,3.094,0.294,4.639c-0.573,0.455-1.144,0.912-1.718,1.365
		V183.515z M441.601,184.651v5.606c-0.777,0.609-1.553,1.223-2.334,1.828c-0.079-2.023,0.02-4.058-0.041-6.086
		C440.02,185.554,440.809,185.1,441.601,184.651z M436.143,187.728c0.374-0.209,0.747-0.419,1.121-0.628
		c0.026,2.147-0.052,4.298,0.119,6.437c-0.559,0.428-1.112,0.863-1.672,1.289C435.681,192.46,435.948,190.095,436.143,187.728z
		 M431.11,190.531c0.984-0.549,1.97-1.097,2.956-1.646c-0.198,2.458-0.4,4.906-0.26,7.367c-0.942,0.704-1.877,1.42-2.826,2.114
		C430.903,195.759,431.025,193.139,431.11,190.531z M428.113,192.204c0.322-0.181,0.646-0.36,0.97-0.541
		c-0.086,2.706-0.178,5.414-0.024,8.108c-0.391,0.281-0.772,0.574-1.165,0.852C427.964,197.817,428.068,195.011,428.113,192.204z
		 M425.183,193.852c0.304-0.172,0.609-0.343,0.913-0.514c-0.063,2.901-0.172,5.803-0.226,8.704
		c-0.299,0.209-0.595,0.421-0.894,0.627C424.894,199.724,424.864,196.781,425.183,193.852z M421.387,202.121
		c0.056-1.846,0.17-3.699,0.387-5.533c0.035-0.297-0.054-0.518-0.201-0.676c0.506-0.291,1.016-0.579,1.522-0.869
		c-0.212,2.977-0.148,5.957-0.07,8.943c-0.551,0.372-1.098,0.75-1.652,1.115C421.33,204.109,421.356,203.112,421.387,202.121z
		 M419.008,197.398c0.239-0.141,0.481-0.277,0.721-0.418c-0.181,1.596-0.67,6.43-0.185,9.316c-0.25,0.162-0.497,0.33-0.748,0.49
		C418.86,203.656,418.956,200.527,419.008,197.398z M415.804,199.291c0.396-0.236,0.793-0.473,1.189-0.709
		c-0.064,3.156-0.162,6.311-0.214,9.467c-0.444,0.275-0.882,0.561-1.329,0.832C415.49,205.701,415.511,202.461,415.804,199.291z
		 M412.353,201.346c0.456-0.272,0.911-0.543,1.367-0.814c-0.219,3.179-0.231,6.396-0.286,9.552
		c-0.435,0.256-0.861,0.523-1.298,0.775C412.207,207.687,412.31,204.517,412.353,201.346z M363.276,233.88
		c0.638-0.539,1.286-1.064,1.933-1.594c-0.045,2.128-0.034,4.259-0.019,6.393c-0.668,0.667-1.331,1.34-1.961,2.042
		C363.146,238.439,363.155,236.159,363.276,233.88z M360.265,236.485c0.315-0.28,0.64-0.55,0.957-0.827
		c-0.07,2.426-0.025,4.855,0.12,7.288c-0.383,0.483-0.757,0.975-1.12,1.476C360.201,241.772,360.181,239.127,360.265,236.485z
		 M357.471,239.039c0.258-0.238,0.512-0.483,0.771-0.722c-0.034,1.921-0.029,3.844-0.019,5.771c-0.422-0.312-0.81-0.651-1.154-1.016
		C357.284,241.739,357.419,240.394,357.471,239.039z M338.069,218.675c2.036,2.012,3.738,4.311,5.511,6.55
		c-0.859,0.051-1.718,0.102-2.577,0.152c-1.476-2.149-2.669-4.486-3.894-6.792C337.429,218.617,337.751,218.633,338.069,218.675z
		 M334.751,218.421c1.302,2.383,2.522,4.808,3.972,7.091c-0.283,0.017-0.565,0.033-0.848,0.05c-1.755-2.243-3.28-4.646-4.563-7.188
		C333.793,218.378,334.271,218.404,334.751,218.421z M331.081,218.394c1.224,2.576,2.689,5.019,4.375,7.311
		c-0.495,0.029-0.99,0.059-1.485,0.088c-1.505-2.439-2.973-4.901-4.463-7.35C330.033,218.421,330.558,218.408,331.081,218.394z
		 M327.227,218.552c1.503,2.451,2.975,4.922,4.476,7.374c-0.38,0.022-0.759,0.045-1.138,0.067c-1.562-2.389-2.933-4.893-4.317-7.389
		L327.227,218.552z M324.021,218.718c1.391,2.488,2.741,4.998,4.257,7.41c-0.572,0.034-1.145,0.066-1.717,0.102
		c-1.979-2.101-3.406-4.729-4.568-7.436C322.669,218.776,323.345,218.75,324.021,218.718z M319.834,218.821
		c1.104,2.682,2.436,5.318,4.215,7.56c-0.269,0.017-0.537,0.032-0.806,0.049c-2.361-2.169-4.044-4.896-5.63-7.664
		C318.352,218.805,319.093,218.817,319.834,218.821z M315.216,218.596c1.591,2.796,3.208,5.622,5.375,7.995
		c-0.607,0.039-1.214,0.072-1.82,0.112c-1.784-2.806-3.675-5.541-5.565-8.276C313.877,218.488,314.546,218.54,315.216,218.596z
		 M310.624,218.201c1.979,2.869,3.97,5.73,5.862,8.657c-0.818,0.057-1.638,0.107-2.456,0.166c-2.181-2.729-3.665-5.924-5.344-8.995
		C309.333,218.083,309.978,218.143,310.624,218.201z M306.297,217.85c1.812,3.111,3.31,6.411,5.382,9.341
		c-0.312,0.023-0.624,0.042-0.936,0.066c-2.384-3.19-4.771-6.377-7.17-9.557C304.48,217.733,305.389,217.791,306.297,217.85z
		 M336.915,278.565c-0.231,0.011-0.463,0.017-0.695,0.027c0.797-1.318,1.635-2.608,2.508-3.875c0.329,0.005,0.658,0.007,0.987,0.011
		C338.764,275.991,337.855,277.29,336.915,278.565z M342.219,274.75c0.136,0,0.272-0.003,0.408-0.003
		c-0.822,1.207-1.613,2.436-2.365,3.691c-0.277,0.011-0.555,0.019-0.832,0.029C340.335,277.207,341.239,275.948,342.219,274.75z
		 M333.828,278.704c-0.423,0.02-0.845,0.038-1.267,0.059c0.864-1.398,1.778-2.764,2.714-4.115c0.355,0.009,0.711,0.014,1.065,0.021
		C335.46,275.985,334.62,277.328,333.828,278.704z M330.157,278.88l-2.147,0.105c1.064-1.516,2.168-3.001,3.318-4.451
		c0.524,0.018,1.048,0.028,1.571,0.045C331.941,275.984,331.019,277.412,330.157,278.88z M325.506,279.11
		c-0.508,0.024-1.017,0.051-1.524,0.075c-0.035,0.002-0.071,0.004-0.107,0.006c1.1-1.629,2.256-3.221,3.443-4.791
		c0.519,0.019,1.037,0.034,1.557,0.053C327.708,275.972,326.59,277.528,325.506,279.11z M321.387,279.331
		c-0.49,0.029-0.98,0.053-1.47,0.083c1.079-1.752,2.219-3.466,3.393-5.159c0.53,0.019,1.061,0.038,1.591,0.058
		C323.679,275.952,322.497,277.617,321.387,279.331z M317.466,279.581c-0.661,0.046-1.322,0.088-1.983,0.137
		c1.322-1.866,2.662-3.719,3.972-5.593c0.497,0.016,0.993,0.034,1.49,0.051C319.731,275.944,318.553,277.734,317.466,279.581z
		 M312.91,279.914c-0.567,0.046-1.135,0.082-1.702,0.13c1.414-2.146,3.123-4.1,4.849-6.018c0.337,0.008,0.674,0.021,1.011,0.029
		C315.686,276.01,314.281,277.951,312.91,279.914z M308.72,280.265c-0.662,0.06-1.324,0.115-1.986,0.178
		c1.412-2.115,2.719-4.29,3.967-6.507c0.907,0.007,1.815,0.028,2.724,0.043C311.686,275.952,310.025,278.001,308.72,280.265z
		 M301.053,217.655c2.459,3.251,4.901,6.515,7.342,9.78c-0.555,0.051-1.042,0.198-1.477,0.407c-3.04-3.127-5.801-6.508-8.229-10.131
		C299.477,217.673,300.264,217.657,301.053,217.655z M282.856,195.38c3.282,4.688,5.574,10.17,7.516,15.518
		c-0.513,0.242-0.923,0.566-1.221,0.959c-4.224,0.573-8.606,0.173-12.977-0.29c1.255-3.597,2.679-7.117,4.243-10.592
		C281.279,199.06,282.242,197.306,282.856,195.38z M249.273,183.533c0.532-0.102,1.078-0.219,1.596-0.305
		c9.115-1.518,19.18-0.07,26.414,5.98c0.381,0.318,0.75,0.647,1.111,0.984c-0.235,0.205-0.442,0.449-0.604,0.736
		c-0.103,0.182-0.204,0.362-0.306,0.543c-0.406,0.719-0.477,1.416-0.339,2.045c-0.596,1.944-1.576,3.691-2.456,5.646
		c-1.699,3.774-3.227,7.629-4.562,11.547c-0.031,0.09-0.039,0.172-0.061,0.26c-1.457-0.109-2.904-0.177-4.334-0.168
		c-9.204,0.057-18.37,1.101-27.574,1.229c-0.992,0.014-1.984,0.014-2.977,0.022c4.264-9.567,9.844-18.497,13.971-28.136
		C249.207,183.789,249.236,183.662,249.273,183.533z M237.055,186.947c1.639-0.617,3.28-1.144,4.912-1.629
		c-4.265,9.002-9.373,17.584-13.264,26.77c-2.162,0-4.325-0.002-6.488-0.012c4.966-8.148,9.506-16.549,14.59-24.63
		C236.91,187.278,236.985,187.112,237.055,186.947z M227.251,191.632c-4.013,6.809-7.854,13.719-12.066,20.408
		c-1.038-0.006-2.076-0.013-3.114-0.018C213.085,203.08,219.348,196.376,227.251,191.632z M146.038,265.709
		c-1.011-6.709-1.167-13.506-1.979-20.24c10.826-10.887,25.311-17.604,38.592-25.067c19.137-0.837,38.29-0.13,57.436-0.397
		c9.166-0.128,18.289-1.156,27.461-1.214c7.7-0.048,15.261,1.792,22.896,0.894c3.74,6.087,8.383,11.666,13.601,16.537
		c0.532,9.656,1.403,19.284,2.317,28.911c-2.552,5.028-5.268,10.02-8.754,14.467c-0.474,0.604-0.746,1.247-0.859,1.89
		c-13.227,1.494-26.428,3.386-39.615,5.053c-21.514-3.147-43.007-0.463-64.1,4.301c-1.322,0.299-2.699,0.543-4.107,0.768
		c-0.273-0.236-0.581-0.458-0.971-0.637C173.053,284.127,159.557,274.899,146.038,265.709z M228.962,293.157
		c-0.903,0.382-1.794,0.793-2.685,1.206c-0.294-0.321-0.585-0.644-0.885-0.959C226.582,293.311,227.77,293.218,228.962,293.157z
		 M186.369,300.075c0.904-0.179,1.812-0.349,2.719-0.521c3.57,3.472,6.99,7.108,10.995,10.08c-0.685,0.432-1.368,0.865-2.054,1.298
		c-0.053-0.123-0.137-0.243-0.269-0.353C193.789,307.27,190.166,303.578,186.369,300.075z M196.348,311.993
		c-0.769,0.481-1.531,0.977-2.301,1.454c-5.352-3.374-9.922-7.744-14.709-11.851c1.527-0.371,3.064-0.706,4.606-1.028
		C188.114,304.339,192.024,308.393,196.348,311.993C196.347,311.992,196.348,311.992,196.348,311.993z M191.473,299.099
		c1.378-0.259,2.754-0.523,4.131-0.79c3.262,2.655,6.397,5.469,9.84,7.889c-1.189,0.763-2.375,1.527-3.556,2.291
		C198.052,305.783,194.799,302.397,191.473,299.099z M198.102,297.806c1.438-0.293,2.875-0.587,4.303-0.918
		c0.283-0.065,0.57-0.124,0.854-0.188c2.457,1.995,4.717,4.21,6.885,6.532c-0.961,0.597-1.92,1.198-2.873,1.804
		C204.037,302.858,201.094,300.3,198.102,297.806z M205.724,296.16c1.411-0.293,2.837-0.562,4.268-0.816
		c1.731,1.646,3.47,3.28,5.339,4.764c-1.156,0.676-2.309,1.361-3.453,2.059C209.92,300.056,207.893,298.028,205.724,296.16z
		 M212.439,294.926c1.484-0.24,2.977-0.455,4.473-0.652c1.072,1.054,2.144,2.108,3.248,3.127c-0.994,0.534-1.984,1.079-2.967,1.636
		C215.518,297.775,213.963,296.369,212.439,294.926z M219.457,293.965c1.119-0.129,2.243-0.233,3.367-0.34
		c0.527,0.539,1.049,1.084,1.562,1.636c-0.781,0.381-1.562,0.759-2.336,1.156C221.163,295.625,220.303,294.802,219.457,293.965z
		 M174.059,303.904c0.217-1.009,1.674-1.472,2.885-1.755c5.041,4.207,9.732,8.824,15.223,12.452
		c-1.271,0.781-2.539,1.569-3.814,2.342c-0.787-0.488-1.545-1.021-2.298-1.559c1.464-2.144,1.153-5.359-2.054-5.814
		c-1.244-0.177-2.479-0.236-3.707-0.244c-2.078-1.358-4.014-2.904-5.81-4.673c-0.157-0.154-0.328-0.222-0.5-0.255
		C174.005,304.232,174.023,304.067,174.059,303.904z M183.43,317.22c0.411-0.091,0.786-0.252,1.135-0.45
		c0.627,0.448,1.254,0.897,1.893,1.328c-0.223,0.134-0.443,0.272-0.666,0.406C184.982,318.111,184.195,317.683,183.43,317.22z
		 M183.746,319.721c-0.537,0.319-1.073,0.644-1.613,0.961c-1.766-1.008-3.41-2.205-5.035-3.437c0.861-0.085,1.719-0.126,2.57-0.117
		C180.973,318.079,182.326,318.957,183.746,319.721z M176.992,309.45c-0.742,0.066-1.482,0.151-2.221,0.253
		c-0.273-0.88-0.529-1.792-0.689-2.706C175.02,307.862,175.986,308.685,176.992,309.45z M174.324,317.638
		c1.919,1.442,3.803,2.934,5.83,4.2c-0.808,0.471-1.611,0.949-2.422,1.416c-2.553-1.442-5.004-3.044-7.373-4.769
		C171.673,318.175,172.998,317.878,174.324,317.638z M175.705,324.418c-0.691,0.394-1.377,0.798-2.072,1.189
		c-1.537-0.773-3.006-1.71-4.427-2.689c-0.34-1.18-0.675-2.36-0.979-3.549C170.641,321.173,173.113,322.889,175.705,324.418z
		 M171.584,326.767c-0.381,0.212-0.756,0.433-1.137,0.644c-0.132-0.525-0.275-1.048-0.418-1.57
		C170.541,326.161,171.059,326.471,171.584,326.767z M125.27,376.095c5.15-0.116,5.162-8.116,0-8
		c-0.163,0.004-0.324,0.016-0.488,0.021c-0.062-0.003-0.115-0.02-0.178-0.021c-1.863-0.029-9.968-0.346-9.359-3.56
		c0.523-2.761,7.161-5.146,9.294-6.153c9.273-4.382,18.788-8.054,28.01-12.615c12.835-6.35,25.45-13.134,37.765-20.444
		c10.983-6.521,21.336-14.038,32.52-20.233c10.49-5.811,21.887-10.119,34.041-9.409c11.171,0.652,21.22,7.337,29.924,13.808
		c9.359,6.959,17.777,15.315,25.367,24.144c6.263,7.285,12.247,15.466,16.027,24.411c-2.822,0.157-5.639,0.355-8.422,0.458
		c-9.514,0.353-19.022,0.645-28.5,1.594c-5.083,0.509-5.133,8.514,0,8c14.333-1.435,28.852-1.788,43.247-2.184
		c2.24-0.062,6.222-0.646,8.017,1.078c1.366,1.312,1.949,3.946,2.307,6.454c-7.183,1.163-14.938,2.431-22.562,2.668
		c-0.172-0.17-21.955-2.729-22.802-1.955c-18.84,0.299-37.62,1.964-56.477,1.936c-21.318-0.032-42.621-1.06-63.941-0.436
		c-18.686,0.547-38.4,0.161-56.773,3.943c-5.1,1.05-10.135,2.504-15.332,3.011c-3.775,0.368-7.123,0.259-7.814-2.753
		C107.91,379.015,116.422,376.295,125.27,376.095z M104.643,395.135c1.426-1.696,2.939-3.3,4.575-4.771
		c0.922-0.126,1.825-0.263,2.679-0.396c0.156-0.024,0.311-0.056,0.467-0.082c-1.066,1.252-2.08,2.559-3.135,3.835
		c-0.814,0.986,0.593,2.409,1.414,1.414c1.622-1.963,3.143-4.066,4.956-5.862c1.49-0.315,2.975-0.661,4.46-1.006
		c-1.489,1.263-2.938,2.574-4.33,3.954c-0.916,0.909,0.498,2.322,1.414,1.414c2.291-2.271,4.719-4.367,7.27-6.325
		c0.898-0.183,1.8-0.347,2.704-0.496c-1.87,1.544-3.657,3.19-5.388,4.907c-0.916,0.909,0.498,2.323,1.414,1.414
		c2.486-2.468,5.084-4.785,7.892-6.851c2.063-0.249,4.132-0.449,6.202-0.629c-2.617,1.867-5.066,3.974-7.508,6.065
		c-0.98,0.841,0.441,2.248,1.414,1.414c3.262-2.794,6.523-5.611,10.232-7.804c1.002-0.069,2.006-0.121,3.008-0.181
		c-2.643,1.727-5.23,3.53-7.654,5.57c-0.987,0.832,0.436,2.239,1.414,1.414c3.214-2.705,6.734-4.977,10.285-7.205
		c1.664-0.08,3.33-0.143,4.996-0.209c-2.035,1.675-3.947,3.494-5.695,5.5c-0.843,0.968,0.566,2.389,1.414,1.414
		c2.311-2.651,4.875-4.993,7.689-7.053c1.144-0.042,2.286-0.084,3.43-0.125c-1.965,1.622-3.844,3.341-5.533,5.264
		c-0.848,0.965,0.562,2.385,1.414,1.414c2.235-2.544,4.801-4.727,7.459-6.8c1.363-0.051,2.724-0.086,4.086-0.13
		c-2.459,2.016-4.828,4.129-6.959,6.516c-0.855,0.959,0.554,2.378,1.414,1.414c2.672-2.992,5.714-5.559,8.843-8.034
		c1.458-0.041,2.916-0.07,4.374-0.104c-2.256,1.682-4.506,3.372-6.631,5.224c-0.974,0.849,0.447,2.258,1.414,1.414
		c2.752-2.399,5.715-4.528,8.631-6.719c0.996-0.02,1.99-0.021,2.986-0.038c-1.171,0.951-2.363,1.88-3.531,2.843
		c-0.995,0.821,0.428,2.229,1.414,1.414c1.752-1.445,3.562-2.812,5.266-4.297c2.207-0.029,4.413-0.037,6.619-0.054
		c-1.489,1.247-2.918,2.569-4.299,3.937c-0.917,0.908,0.498,2.322,1.414,1.414c1.936-1.917,3.955-3.745,6.124-5.377
		c2.21-0.012,4.42-0.01,6.63-0.012c-1.074,0.971-2.137,1.954-3.168,2.975c-0.916,0.908,0.498,2.322,1.414,1.414
		c1.536-1.521,3.133-2.974,4.758-4.394c1.768,0.003,3.538,0.022,5.307,0.03c-2.087,1.527-4.115,3.127-5.979,4.949
		c-0.923,0.903,0.492,2.316,1.414,1.414c2.445-2.391,5.179-4.388,7.955-6.344c1.477,0.01,2.957,0.034,4.434,0.047
		c-1.828,1.549-3.59,3.182-5.303,4.883c-0.916,0.91,0.499,2.323,1.414,1.414c2.236-2.221,4.551-4.324,6.998-6.265
		c1.199,0.012,2.4,0.027,3.6,0.038c-0.691,0.578-1.363,1.18-2.012,1.812c-0.923,0.903,0.492,2.316,1.414,1.414
		c1.188-1.16,2.463-2.204,3.781-3.193c1.98,0.02,3.957,0.033,5.941,0.062c0.268,0.004,0.536,0.004,0.805,0.007
		c-1.348,1.197-2.66,2.438-3.941,3.71c-0.916,0.909,0.498,2.323,1.414,1.414c1.788-1.773,3.631-3.487,5.558-5.099
		c1.894,0.008,3.784-0.018,5.677-0.037c-1.919,1.527-3.806,3.096-5.648,4.722c-0.969,0.854,0.451,2.264,1.414,1.414
		c2.436-2.148,4.941-4.202,7.516-6.169c1.697-0.03,3.395-0.077,5.092-0.123c-1.608,1.236-3.199,2.497-4.818,3.722
		c-1.016,0.768-0.02,2.506,1.01,1.727c2.428-1.836,4.794-3.754,7.249-5.546c1.183-0.038,2.366-0.083,3.55-0.126
		c-0.68,0.522-1.35,1.056-2.012,1.602c-0.995,0.821,0.428,2.229,1.414,1.414c1.346-1.109,2.729-2.169,4.164-3.148
		c1.228-0.049,2.455-0.101,3.684-0.152c-1.348,1.006-2.621,2.107-3.762,3.387c-0.855,0.959,0.555,2.379,1.414,1.414
		c1.781-1.997,3.895-3.542,6.107-4.961c1.594-0.069,3.188-0.138,4.783-0.206c-1.684,1.305-3.274,2.745-4.805,4.253
		c-0.919,0.906,0.496,2.32,1.414,1.414c2.188-2.156,4.508-4.175,7.059-5.825c2.231-0.094,4.463-0.184,6.695-0.268
		c-1.939,1.669-3.847,3.374-5.668,5.179c-0.916,0.908,0.498,2.322,1.414,1.414c2.377-2.355,4.896-4.548,7.453-6.701
		c1.477-0.05,2.954-0.085,4.431-0.126c-0.926,0.977-1.85,1.956-2.798,2.913c-0.908,0.917,0.506,2.331,1.414,1.414
		c1.436-1.448,2.816-2.946,4.232-4.408c1.902-0.044,3.805-0.062,5.707-0.085c-1.695,1.254-3.33,2.591-4.854,4.079
		c-0.924,0.902,0.492,2.315,1.414,1.414c2.084-2.035,4.374-3.781,6.757-5.405c1.188,0.33,2.392,0.611,3.607,0.849
		c-0.938,0.868-1.87,1.742-2.778,2.643c-0.917,0.909,0.498,2.323,1.414,1.414c1.257-1.246,2.558-2.445,3.861-3.643
		c2.858,0.414,5.776,0.612,8.726,0.64c1.892,2.39,3.184,4.902,3.991,7.495c-6.914,2.666-16.593,4.522-23.721,1.943
		c-2.128-0.77-4.279,0.853-4.921,2.794c-3.452,10.435-21.835,5.571-29.663,4.632c-6.957-0.835-13.729-0.292-20.711,0.102
		c-10.481,0.591-20.967,1.129-31.457,1.556c-19.898,0.809-39.992-0.109-59.809,2.004c-8.029,0.855-15.834,2.617-23.715,4.294
		c-3.542,0.754-7.08,1.371-10.707,1.447c-4.873,0.104-5.023-3.97-5.082-7.971c-0.036-2.485-2.546-4.7-5.062-3.857
		c-1.857,0.622-4.1,1.592-6.101,1.173c-1.237-0.26-1.272-3.985-1.337-4.815c-0.019-0.246-0.069-0.47-0.121-0.692
		c1.398-0.871,2.883-1.589,4.37-2.165c-0.492,0.543-0.981,1.087-1.456,1.65C102.404,394.701,103.812,396.123,104.643,395.135z
		 M147.867,446.61c0.273-0.393,0.524-0.802,0.738-1.234c1.697,0.601,3.375,1.245,5.086,1.795c-0.42,0.972-0.947,1.894-1.569,2.755
		C150.711,448.812,149.273,447.73,147.867,446.61z M150.842,451.443c-0.802,0.823-1.721,1.555-2.758,2.177
		c-0.821-1.603-1.625-3.215-2.441-4.82c0.32-0.213,0.628-0.44,0.911-0.693C147.973,449.232,149.422,450.318,150.842,451.443z
		 M149.318,443.513c0.101-0.367,0.191-0.738,0.254-1.117c1.715,0.468,3.441,0.877,5.178,1.251c-0.096,0.556-0.223,1.104-0.376,1.644
		C152.672,444.751,151.004,444.111,149.318,443.513z M149.71,440.359c-0.005-0.154,0.003-0.312-0.009-0.466
		c1.68-0.563,3.387-1.029,5.144-1.312c0.138,1.021,0.174,2.05,0.125,3.069C153.205,441.267,151.451,440.845,149.71,440.359z
		 M149.326,437.927c-0.232-0.746-0.562-1.448-0.973-2.099c1.41-1.191,2.975-2.147,4.67-2.875c0.622,1.18,1.111,2.415,1.437,3.687
		C152.707,436.934,151.006,437.38,149.326,437.927z M147.102,434.265c-0.02-0.019-0.035-0.04-0.054-0.059
		c0.067-0.153,0.133-0.31,0.202-0.463c0.588-1.291,1.462-3.608,2.784-4.737c0.573,0.508,1.115,1.079,1.61,1.734
		c0.121,0.16,0.221,0.332,0.336,0.496C150.219,432.02,148.576,433.024,147.102,434.265z M146.299,431.134
		c-0.312,0.595-0.598,1.202-0.873,1.814c-0.445-0.272-0.914-0.515-1.41-0.716c-0.023-0.009-0.046-0.016-0.068-0.022
		c0.312-1.934,0.666-3.86,1.025-5.787c1.219,0.281,2.383,0.745,3.464,1.403C147.531,428.792,146.857,430.073,146.299,431.134z
		 M146.303,454.523c-1.336,0.561-2.682,0.858-4.018,0.973c0.193-0.16,0.324-0.403,0.318-0.735c-0.028-1.588-0.269-3.133-0.593-4.667
		c0.357-0.047,0.715-0.102,1.069-0.184c0.268-0.062,0.52-0.146,0.77-0.23C144.67,451.293,145.477,452.913,146.303,454.523z
		 M142.092,431.195c-0.691-0.192-1.451-0.23-2.219-0.125c-0.27,0.037-0.518,0.105-0.775,0.161c0.033-1.674,0.169-3.34,0.458-4.984
		c1.158-0.168,2.315-0.215,3.447-0.128C142.688,427.811,142.375,429.501,142.092,431.195z M139.977,450.16
		c0.335,1.511,0.599,3.031,0.627,4.601c0.006,0.376,0.189,0.629,0.433,0.785c-1.509-0.014-2.993-0.29-4.423-0.766
		c0.505-1.64,0.973-3.289,1.399-4.949C138.65,450.006,139.307,450.119,139.977,450.16z M137.114,431.188
		c-0.638-1.247-1.295-2.482-1.974-3.708c0.762-0.312,1.532-0.594,2.317-0.805C137.238,428.166,137.145,429.676,137.114,431.188z
		 M135.649,432.705c-0.142,0.099-0.292,0.189-0.427,0.295c-1.289-1.184-2.586-2.358-3.945-3.461
		c0.656-0.445,1.346-0.841,2.047-1.211C134.129,429.772,134.902,431.232,135.649,432.705z M136.143,449.072
		c-0.425,1.664-0.891,3.316-1.393,4.959c-1.16-0.548-2.262-1.241-3.303-2.027c1.086-1.314,2.193-2.611,3.323-3.888
		C135.201,448.485,135.658,448.806,136.143,449.072z M133.818,434.365c-0.049,0.058-0.105,0.11-0.152,0.17
		c-2.137-0.487-4.279-0.949-6.428-1.39c0.716-0.856,1.531-1.649,2.408-2.382C131.096,431.892,132.462,433.122,133.818,434.365z
		 M132.523,436.325c-0.162,0.332-0.312,0.67-0.437,1.018c-2.524,0.191-5.044,0.426-7.567,0.515c0.35-1.02,0.834-2.003,1.424-2.938
		C128.142,435.367,130.336,435.832,132.523,436.325z M131.587,439.382c-0.019,0.145-0.027,0.291-0.04,0.438
		c-2.574,0.682-5.142,1.375-7.66,2.236c-0.018-0.735,0.029-1.463,0.145-2.179C126.553,439.809,129.068,439.579,131.587,439.382z
		 M125.391,444.909c-0.215-0.408-0.472-0.732-0.75-1.002c2.281-0.771,4.604-1.406,6.934-2.025c0.028,0.243,0.063,0.486,0.111,0.729
		c-1.986,0.967-4.007,1.863-6.051,2.715C125.557,445.186,125.465,445.051,125.391,444.909z M132.269,444.544
		c0.298,0.715,0.681,1.411,1.16,2.075c-1.194,1.349-2.366,2.719-3.511,4.111c-1.211-1.108-2.287-2.364-3.215-3.701
		C128.579,446.243,130.438,445.423,132.269,444.544z M293.561,468.292c-9.586-1.548-19.271-0.679-28.977-0.278
		c-11.873,0.49-23.799-1.269-35.678-1.604c-24.939-0.701-49.939-0.183-74.892-0.595c-8.249-0.137-18.232,2.4-24.208-4.646
		c-0.354-0.416-0.69-0.849-1.02-1.29c6.49,3.889,14.469,4.895,21.959,1.365c12.854-6.058,15.186-22.244,8.309-33.795
		c-11.653-19.57-43.001-5.348-43.158,14.208c-1.031-1.224-2.066-2.441-3.084-3.659c-6.794-8.139-15.864-16.892-19.845-26.878
		c-1.465-3.674-1.04-7.052,0.503-9.963c0.691,2.179,1.852,4.138,3.889,5.284c2.574,1.448,5.32,1.549,8.051,1.071
		c1.002,5.457,3.801,10.115,10.297,10.741c7.646,0.737,15.561-1.653,22.955-3.326c23.312-5.272,47.895-3.31,71.618-4.197
		c19.459-0.729,39.265-3.609,58.644-1.178c10.8,1.355,25.063,2.787,31.186-7.363c7.523,1.559,16.678,0.055,23.675-2.455
		c-0.193,7.159-3.021,14.586-6.521,21.516c-2.246,4.447-4.482,8.901-6.716,13.358c-3.876-6.797-10.204-12.078-18.097-13.66
		c-9.677-1.938-20.537,4.269-23.803,13.632c-5.814,16.669,11.822,30.332,27.283,29.047
		C295.141,465.182,294.355,466.74,293.561,468.292z M290.021,433.467c0.077-1.582,0.229-3.155,0.515-4.721
		c0.318,0.037,0.635,0.086,0.947,0.148c1.219,0.244,2.38,0.646,3.479,1.172c-0.864,1.104-1.685,2.241-2.437,3.427
		c-0.433-0.019-0.871-0.011-1.321,0.047C290.828,433.451,290.43,433.43,290.021,433.467z M291.029,455.828
		c-0.456-0.069-0.912-0.152-1.367-0.257c0.172-1.76,0.336-3.521,0.578-5.27c0.074,0.019,0.152,0.027,0.228,0.045
		C290.604,452.179,290.8,454.005,291.029,455.828z M293.134,450.573c0.827,1.766,1.711,3.506,2.444,5.308
		c-0.828,0.111-1.67,0.167-2.527,0.138c-0.23-1.806-0.42-3.614-0.561-5.427C292.705,450.595,292.92,450.586,293.134,450.573z
		 M296.723,431.056c1.096,0.702,2.122,1.524,3.061,2.447c-0.844,0.661-1.698,1.309-2.564,1.94c-0.74-0.684-1.606-1.205-2.557-1.542
		C295.308,432.922,295.992,431.973,296.723,431.056z M301.144,434.964c0.438,0.52,0.859,1.054,1.249,1.61
		c-1.186,0.085-2.373,0.134-3.564,0.158C299.607,436.152,300.381,435.564,301.144,434.964z M303.589,438.472
		c0.521,0.92,0.985,1.867,1.373,2.829c-1.807-0.38-3.589-0.854-5.304-1.543c-0.014-0.061-0.021-0.124-0.036-0.186
		c-0.071-0.295-0.161-0.58-0.259-0.859C300.775,438.676,302.184,438.602,303.589,438.472z M299.973,441.988
		c1.895,0.66,3.845,1.122,5.819,1.501c0.049,0.107,0.085,0.229,0.141,0.328c-0.677,1.35-1.356,2.697-2.035,4.046
		c-1.148-1.392-2.538-2.551-4.042-3.589C299.978,443.524,300.01,442.756,299.973,441.988z M283.639,438.569
		c-0.15,0.301-0.275,0.614-0.383,0.937c-2.405-0.623-4.764-1.405-7.117-2.234c0.33-0.965,0.788-1.869,1.359-2.698
		C279.458,436.056,281.516,437.364,283.639,438.569z M278.749,433.038c0.988-1.024,2.147-1.897,3.419-2.583
		c0.994,1.953,2.174,3.779,3.446,5.548c-0.308,0.288-0.6,0.591-0.87,0.91C282.668,435.749,280.65,434.485,278.749,433.038z
		 M282.256,441.304c-2.191,0.33-4.375,0.716-6.562,1.095c-0.148-1.029-0.16-2.091-0.012-3.174
		C277.855,439.991,280.038,440.709,282.256,441.304z M283.041,443.188c0.065,0.346,0.146,0.688,0.256,1.021
		c-1.938,0.996-3.83,2.095-5.809,3.019c-0.562-0.917-1.014-1.884-1.339-2.89C278.445,443.939,280.736,443.521,283.041,443.188z
		 M284.143,446.006c0.123,0.195,0.261,0.385,0.398,0.573c-1.369,1.395-2.771,2.754-4.228,4.058
		c-0.593-0.556-1.153-1.138-1.655-1.758C280.521,447.993,282.31,446.948,284.143,446.006z M285.885,448.063
		c0.065,0.057,0.137,0.108,0.203,0.163c-0.727,1.693-1.383,3.419-2.111,5.113c-0.736-0.426-1.448-0.891-2.121-1.399
		C283.242,450.694,284.578,449.394,285.885,448.063z M287.766,449.352c0.183,0.098,0.369,0.189,0.559,0.276
		c-0.258,1.79-0.434,3.593-0.607,5.396c-0.668-0.227-1.328-0.477-1.973-0.771C286.439,452.628,287.071,450.976,287.766,449.352z
		 M287.991,434.242c-0.274,0.168-0.55,0.331-0.82,0.517c-1.173-1.644-2.262-3.34-3.192-5.144c1.465-0.555,3.012-0.876,4.543-0.938
		C288.207,430.52,288.057,432.375,287.991,434.242z M298.917,454.974c-0.441,0.196-0.896,0.361-1.36,0.501
		c-0.722-1.797-1.597-3.527-2.423-5.281c0.725-0.24,1.407-0.601,2.026-1.082c1.174,1.749,2.18,3.583,2.941,5.545
		C299.713,454.707,299.32,454.795,298.917,454.974z M298.549,447.629c0.293-0.421,0.521-0.87,0.721-1.331
		c1.383,1.014,2.632,2.165,3.623,3.565c-0.48,0.954-0.959,1.909-1.439,2.862C300.65,450.94,299.666,449.252,298.549,447.629z
		 M352.145,432.327c-1.843,0.489-3.691,0.957-5.475,1.637c-1.192,0.454-0.676,2.389,0.531,1.928
		c1.152-0.438,2.335-0.782,3.523-1.106c-0.211,0.366-0.428,0.738-0.638,1.104c-0.488,0.851-0.972,1.687-1.455,2.517
		c-2.852,0.547-5.666,1.268-8.462,2.059c-1.239,0.351-0.712,2.28,0.531,1.928c2.17-0.613,4.353-1.176,6.554-1.658
		c-1.429,2.376-2.885,4.648-4.459,6.795c-2.191,0.696-4.41,1.308-6.626,1.936c-1.239,0.351-0.712,2.28,0.531,1.928
		c1.32-0.374,2.641-0.743,3.958-1.124c-1.34,1.604-2.788,3.115-4.373,4.533c-1.779,0.107-3.564,0.126-5.351,0.127
		c-1.289,0-1.289,2,0,2c0.938,0,1.874-0.012,2.808-0.032c-1.481,1.114-3.08,2.155-4.834,3.109
		c-8.105,4.411-17.419,6.42-26.497,8.439c0.085-0.171,0.166-0.344,0.251-0.516c0.232,0.081,0.503,0.058,0.777-0.138
		c3.985-2.834,8.684-3.909,13.261-5.399c1.222-0.396,0.698-2.328-0.531-1.928c-4.117,1.34-8.335,2.367-12.076,4.536
		c0.836-1.702,1.66-3.409,2.489-5.114c0.249,0.115,0.55,0.114,0.857-0.095c3.725-2.528,8.149-3.69,12-6
		c1.104-0.662,0.1-2.392-1.01-1.727c-3.35,2.009-7.133,3.151-10.513,5.079c0.856-1.767,1.72-3.53,2.578-5.297
		c0.193,0.103,0.428,0.14,0.705,0.045c3.339-1.135,6.58-2.537,9.739-4.101c1.156-0.572,0.143-2.297-1.01-1.727
		c-2.72,1.346-5.501,2.553-8.358,3.572c0.649-1.331,1.292-2.665,1.945-3.994c0.4-0.816,0.814-1.627,1.228-2.438
		c2.967-1.336,5.861-2.806,8.695-4.414c1.121-0.636,0.114-2.364-1.01-1.727c-2.028,1.151-4.091,2.228-6.186,3.242
		c1.148-2.186,2.321-4.36,3.49-6.536c3.26-1.441,6.562-2.778,9.705-4.479c1.135-0.614,0.125-2.341-1.01-1.727
		c-2.334,1.264-4.758,2.326-7.187,3.38c0.87-1.638,1.728-3.282,2.565-4.936c3.002-0.923,5.948-2.014,8.892-3.117
		c1.196-0.448,0.679-2.382-0.531-1.928c-2.361,0.885-4.727,1.751-7.118,2.539c0.572-1.176,1.136-2.356,1.675-3.548
		c0.227-0.501,0.437-1.006,0.65-1.511c2.807-0.743,5.592-1.552,8.324-2.553c1.201-0.439,0.683-2.373-0.531-1.928
		c-2.255,0.826-4.548,1.518-6.856,2.154c0.52-1.366,0.988-2.739,1.401-4.116c2.564-1.094,5.212-1.991,7.726-3.211
		c1.16-0.562,0.146-2.287-1.01-1.727c-1.97,0.956-4.022,1.712-6.056,2.52c0.39-1.554,0.697-3.107,0.928-4.658
		c3.093-1.135,6.204-2.208,9.398-3.034c1.248-0.322,0.719-2.251-0.531-1.928c-2.917,0.754-5.765,1.717-8.593,2.743
		c0.172-1.787,0.215-3.563,0.141-5.322c2.794-1.083,5.664-1.959,8.483-2.993c1.201-0.439,0.683-2.373-0.531-1.928
		c-2.689,0.985-5.418,1.842-8.092,2.849c-0.128-1.252-0.334-2.492-0.606-3.719c2.081-0.552,4.179-1.041,6.229-1.702
		c1.223-0.394,0.7-2.324-0.531-1.928c-2.038,0.656-4.122,1.144-6.189,1.691c-0.169-0.58-0.359-1.155-0.563-1.728
		c0.092-0.004,0.182-0.001,0.284-0.036c1.231-0.418,2.417-0.935,3.734-0.964c1.288-0.028,1.291-2.028,0-2
		c-1.515,0.033-2.851,0.555-4.266,1.036c-0.179,0.061-0.31,0.16-0.416,0.274c-0.358-0.842-0.751-1.677-1.195-2.498
		c7.421-0.643,14.812-1.938,21.669-3.024c0.049,0.022,0.095,0.048,0.145,0.069c0.973,0.409,1.918,0.79,2.836,1.169
		c-1.346,0.337-2.692,0.673-4.038,1.01c-1.251,0.312-0.72,2.241,0.531,1.928l6-1.5c0.151-0.038,0.273-0.101,0.374-0.179
		c0.661,0.316,1.297,0.655,1.915,1.016c-1.465,0.314-2.912,0.699-4.32,1.235c-1.193,0.454-0.676,2.388,0.531,1.928
		c1.972-0.751,4.021-1.204,6.088-1.581c1.134,0.93,2.159,2.059,3.071,3.465c-2.247,0.488-4.476,1.062-6.69,1.688
		c-1.239,0.351-0.712,2.28,0.531,1.928c2.378-0.673,4.771-1.285,7.188-1.794c0.657,1.434,1.034,2.97,1.215,4.546
		c-3.425,0.547-6.72,1.474-9.934,2.82c-1.171,0.49-0.657,2.427,0.531,1.928c3.087-1.293,6.25-2.196,9.529-2.753
		c0.024,1.513-0.111,3.033-0.324,4.521c-2.241,0.459-4.474,0.959-6.736,1.305c-1.271,0.193-0.729,2.12,0.531,1.928
		c1.963-0.299,3.902-0.716,5.845-1.121c-0.067,0.339-0.129,0.683-0.202,1.014c-0.219,1.001-0.48,1.989-0.762,2.974
		c-2.66,0.651-5.324,1.27-7.912,2.206c-1.203,0.435-0.684,2.368,0.531,1.928c2.193-0.793,4.441-1.357,6.696-1.907
		c-0.654,1.974-1.43,3.911-2.268,5.826c-2.153,0.718-4.307,1.436-6.46,2.153c-1.217,0.405-0.695,2.337,0.531,1.928l4.79-1.597
		c-0.808,1.697-1.67,3.374-2.56,5.035c-1.938,0.48-3.854,1.082-5.762,1.634c-1.236,0.356-0.71,2.287,0.531,1.928
		c1.299-0.375,2.603-0.779,3.915-1.151C354.477,428.293,353.31,430.316,352.145,432.327z M451.326,394.584
		c-1.499,0.037-2.997,0.086-4.496,0.128c-3.674-5.795-7.135-11.741-10.221-17.871c0.976-0.005,1.951-0.014,2.927-0.019
		C443.038,383.023,447.049,388.898,451.326,394.584z M448.78,376.777c0.384-0.001,0.767-0.005,1.15-0.006
		c0.791,0.061,1.585,0.106,2.378,0.156h-2.373c-0.378,0-0.632,0.181-0.788,0.424C449.027,377.158,448.899,376.971,448.78,376.777z
		 M444.512,394.778c-1.413,0.042-2.827,0.092-4.24,0.138c-3.361-5.87-6.705-11.735-9.156-18.038
		c1.087-0.007,2.175-0.017,3.262-0.022C437.421,383.007,440.859,388.966,444.512,394.778z M387.238,404.677
		c0.624-0.014,1.248-0.036,1.872-0.051c-2.859,3.51-5.245,7.499-7.606,11.265c-3.191,5.091-6.2,10.306-9.072,15.587
		c-1.157-0.024-2.312-0.039-3.463-0.027C374.631,422.244,381.062,413.545,387.238,404.677z M366.6,431.512
		c-1.688,0.07-3.369,0.2-5.045,0.427c0.218-0.391,0.436-0.782,0.652-1.175c6.936-8.815,13.761-17.742,21.362-25.996
		c0.399-0.008,0.798-0.021,1.197-0.029C378.581,413.578,372.191,422.282,366.6,431.512z M382.492,418.093
		c2.798-4.573,5.674-9.489,9.309-13.54c0.665-0.018,1.33-0.041,1.995-0.06c-3.197,9.858-10.487,18.792-16.775,27.131
		c-0.781-0.031-1.566-0.063-2.346-0.089C377.176,426.994,379.787,422.516,382.492,418.093z M395.901,404.431
		c1.095-0.031,2.189-0.07,3.284-0.104c-5.79,9.221-11.699,18.368-17.704,27.449c-0.344-0.007-0.685-0.012-1.031-0.023
		c-0.34-0.012-0.676-0.025-1.015-0.038C385.785,423.319,392.875,414.369,395.901,404.431z M401.598,404.251
		c1.358-0.043,2.716-0.096,4.073-0.142c-7.392,8.651-13.292,18.439-19.986,27.633c-0.602,0.024-1.207,0.043-1.819,0.05
		C389.881,422.68,395.801,413.502,401.598,404.251z M408.398,404.015c1.459-0.05,2.917-0.104,4.376-0.154
		c-6.949,9.128-12.916,18.995-20.952,27.262c-1.176,0.188-2.359,0.351-3.566,0.455C394.891,422.323,400.818,412.538,408.398,404.015
		z M415.348,403.769c0.879-0.031,1.758-0.061,2.637-0.092c-5.312,8.989-12.229,16.949-18.316,25.418
		c-1.479,0.539-2.971,0.991-4.482,1.356C402.691,422.167,408.474,412.562,415.348,403.769z M420.341,403.596
		c1.343-0.048,2.687-0.092,4.029-0.14c-4.447,6.591-9.076,13.058-13.545,19.635c-1.032,0.714-2.074,1.413-3.137,2.076
		c-1.489,0.929-2.978,1.738-4.474,2.446C409.08,419.72,415.465,412.141,420.341,403.596z M426.83,403.37
		c1.871-0.066,3.742-0.129,5.614-0.194c-2.675,3.418-5.546,6.681-8.228,10.096c-2.921,2.018-5.745,4.202-8.596,6.342
		C419.372,414.208,423.171,408.837,426.83,403.37z M435.008,403.086c2.087-0.072,4.175-0.149,6.263-0.217
		c-3.763,2.601-7.824,4.813-11.8,7.074C431.348,407.682,433.229,405.425,435.008,403.086z M438.013,394.989
		c-1.534,0.052-3.069,0.107-4.604,0.162c-3.274-5.627-5.485-11.888-6.928-18.239c0.836-0.006,1.672-0.013,2.509-0.019
		C431.382,383.221,434.661,389.117,438.013,394.989z M431.13,395.232c-1.538,0.056-3.075,0.113-4.612,0.171
		c-0.077-0.295-0.202-0.661-0.366-1.228c-0.376-1.297-0.702-2.606-1.094-3.898c-1.346-4.442-2.779-8.823-3.864-13.323
		c1.084-0.008,2.167-0.019,3.251-0.026C425.842,383.261,427.974,389.557,431.13,395.232z M424.445,395.479
		c-0.802,0.03-1.604,0.06-2.405,0.09c-2.092-6.113-4.547-12.165-5.241-18.579c0.779-0.007,1.559-0.014,2.338-0.02
		C420.579,383.225,422.659,389.317,424.445,395.479z M419.961,395.646c-0.916,0.034-1.832,0.066-2.748,0.101
		c-2.054-6.269-3.997-12.573-6.42-18.709c1.333-0.011,2.666-0.021,3.999-0.032C415.466,383.443,417.855,389.513,419.961,395.646z
		 M415.136,395.824c-1.312,0.049-2.625,0.093-3.937,0.141c-2.667-6.044-4.304-12.469-5.84-18.883l3.297-0.026
		C411.117,383.206,413.079,389.53,415.136,395.824z M409.072,396.041c-1.096,0.039-2.19,0.073-3.285,0.111
		c-2.255-6.239-4.174-12.564-5.643-19.028c1.055-0.009,2.109-0.017,3.164-0.025C404.851,383.528,406.492,389.946,409.072,396.041z
		 M403.692,396.223c-0.913,0.03-1.826,0.058-2.739,0.087c-2.119-6.372-4.408-12.684-6.235-19.143
		c1.126-0.009,2.252-0.017,3.378-0.026C399.543,383.625,401.45,389.968,403.692,396.223z M398.87,396.375
		c-1.144,0.036-2.286,0.066-3.43,0.101c-2.856-6.095-4.882-12.604-5.854-19.27c1.019-0.009,2.036-0.016,3.055-0.023
		C394.446,383.665,396.737,389.992,398.87,396.375z M393.28,396.538c-1.278,0.035-2.556,0.059-3.834,0.09
		c-0.04-0.081-0.069-0.163-0.137-0.24c-2.439-2.811-3.187-7.204-3.992-10.726c-0.632-2.76-1.118-5.584-1.414-8.418
		c1.229-0.01,2.456-0.014,3.685-0.023C388.546,383.899,390.497,390.391,393.28,396.538z M387.049,396.685
		c-1.261,0.028-2.521,0.05-3.781,0.074c-2.002-6.379-3.749-12.86-4.635-19.481c1.088-0.008,2.176-0.013,3.264-0.021
		c0.321,3.005,0.867,5.993,1.492,8.938C384.119,389.637,384.995,393.662,387.049,396.685z M381.189,396.8
		c-1.068,0.019-2.137,0.025-3.205,0.04c-2.946-5.615-3.571-13.087-4.549-19.53c1.065-0.007,2.131-0.012,3.196-0.02
		C377.507,383.921,379.208,390.408,381.189,396.8z M375.768,396.868c-0.771,0.008-1.541,0.022-2.312,0.028
		c-0.12-0.279-0.226-0.562-0.342-0.844c-0.31-3.822-1.454-7.556-3.367-10.88c-0.562-2.58-0.987-5.193-1.296-7.832
		c0.993-0.007,1.985-0.012,2.979-0.019C372.439,383.699,373.038,391.058,375.768,396.868z M375.037,404.882
		c-1.112,1.104-2.212,2.225-3.265,3.384c0.277-1.111,0.531-2.229,0.738-3.357C373.354,404.904,374.195,404.889,375.037,404.882z
		 M370.32,413.207c2.191-3.052,4.903-5.716,7.589-8.355c0.973-0.013,1.945-0.017,2.918-0.031
		c-4.835,5.361-9.379,10.976-13.85,16.649C368.231,418.766,369.366,416.014,370.32,413.207z M361.74,377.383
		c1.57-0.006,3.142-0.019,4.712-0.029c0.159,1.365,0.338,2.725,0.559,4.074C365.439,379.752,363.661,378.462,361.74,377.383z
		 M484.092,381.428h-6.656c-1.289,0-1.289,2,0,2h6.868c0.007,1.772-0.429,3.588-1.175,5.411c-2.533,0.363-5.135,0.312-7.693,0.589
		c-1.268,0.138-1.281,2.139,0,2c2.22-0.24,4.472-0.245,6.689-0.454c-0.894,1.692-1.998,3.38-3.206,5.033
		c-2.318,0.073-4.646-0.059-6.983-0.079c-1.29-0.011-1.289,1.989,0,2c1.831,0.016,3.651,0.085,5.465,0.084
		c-1.41,1.799-2.885,3.544-4.271,5.192c-2.383,0.306-4.788,0.474-7.194,0.724c-1.27,0.132-1.282,2.133,0,2
		c1.786-0.186,3.572-0.325,5.349-0.504c-0.901,1.104-1.726,2.153-2.406,3.129c-0.246,0.352-0.481,0.71-0.725,1.062
		c-2.723,0.289-5.468,0.312-8.218,0.312c-1.289,0.001-1.289,2.001,0,2c2.263-0.001,4.521-0.023,6.767-0.184
		c-0.886,1.321-1.762,2.647-2.63,3.979c-2.372,0.275-4.759,0.428-7.137,0.704c-1.266,0.146-1.279,2.148,0,2
		c1.912-0.222,3.828-0.369,5.739-0.557c-0.753,1.16-1.505,2.32-2.261,3.479c-1.658,0.072-3.32,0.077-4.979,0.078
		c-1.289,0-1.289,2,0,2c1.214,0,2.425-0.015,3.635-0.047c-0.644,0.973-1.283,1.948-1.94,2.913c-2.679,0.382-5.318,1.011-7.96,1.67
		c-1.251,0.312-0.72,2.24,0.531,1.928c1.956-0.488,3.908-0.964,5.878-1.326c-0.084,0.118-0.162,0.241-0.246,0.359
		c-1.004,1.417-2.073,2.916-3.219,4.392c-2.187,0.296-4.401,0.332-6.679,0.111c-1.283-0.125-1.271,1.877,0,2
		c1.649,0.16,3.273,0.193,4.878,0.094c-1.18,1.361-2.44,2.653-3.805,3.774c-2.834,0.249-5.704-0.052-8.573-0.368
		c-1.281-0.142-1.268,1.86,0,2c1.858,0.205,3.715,0.391,5.563,0.443c-1.611,0.892-3.35,1.52-5.242,1.762
		c-6.311,0.809-12.913-0.823-19.254-0.799c-8.341,0.033-16.637,1.136-24.982,1.085c-12.788-0.078-25.906-2.227-38.668-0.583
		c0.286-0.493,0.571-0.988,0.854-1.484c0.099-0.026,0.191-0.032,0.292-0.066c8.911-2.979,18.155-1.632,27.357-1.437
		c8.572,0.182,16.256-1.748,23.733-5.491c0.105,0.037,0.214,0.07,0.346,0.07c3.776,0.002,7.558-0.004,11.234,0.964
		c1.249,0.329,1.778-1.601,0.531-1.928c-2.824-0.744-5.71-0.951-8.608-1.011c1.299-0.759,2.573-1.556,3.829-2.384
		c3.501,0.331,7.019,0.454,10.514,0.858c1.28,0.148,1.266-1.854,0-2c-2.624-0.304-5.261-0.445-7.894-0.635
		c1.664-1.167,3.309-2.363,4.943-3.576c3.147,0.255,6.258-0.229,9.45-0.289c1.288-0.024,1.291-2.024,0-2
		c-2.32,0.044-4.612,0.354-6.906,0.399c0.897-0.666,1.795-1.331,2.698-1.987c3.312-0.352,6.723-0.236,9.974-0.948
		c1.26-0.275,0.726-2.203-0.531-1.928c-2.05,0.448-4.177,0.54-6.297,0.649c0.854-0.588,1.711-1.17,2.582-1.731
		c1.313-0.848,2.642-1.654,3.972-2.451c3.422,0.013,6.907,0.065,10.274-0.539c1.269-0.228,0.729-2.154-0.531-1.928
		c-2.101,0.376-4.266,0.466-6.427,0.479c1.522-0.911,3.036-1.828,4.514-2.793c0.16,0.164,0.382,0.277,0.679,0.277h8.5
		c1.29,0,1.29-2,0-2h-6.648c0.674-0.484,1.338-0.982,1.99-1.5h7.658c1.29,0,1.29-2,0-2h-5.316c0.662-0.609,1.312-1.24,1.938-1.908
		c1.293-0.029,2.586-0.068,3.879-0.092c0.746-0.014,1.371-0.207,1.901-0.503c1.122-0.421,2.092-1.426,2.562-2.646
		c1.27,0.016,2.538-0.099,3.802-0.388c1.258-0.286,0.725-2.215-0.531-1.928c-0.991,0.226-1.993,0.317-2.995,0.322
		c-0.077-0.74-0.356-1.489-0.91-2.187c-0.313-0.394-0.616-0.796-0.926-1.191c1.447,0.13,2.894,0.262,4.331,0.483
		c1.262,0.195,1.803-1.731,0.531-1.928c-2.163-0.335-4.348-0.47-6.522-0.692c-0.969-1.271-1.925-2.552-2.865-3.844h8.622
		c1.29,0,1.29-2,0-2h-10.062c-0.588-0.829-1.172-1.661-1.745-2.5h6.307c1.29,0,1.29-2,0-2h-7.638
		c-0.551-0.832-1.109-1.658-1.645-2.5h8.282c0.988,0,1.213-1.168,0.687-1.717c7.152,0.136,14.313-0.276,21.28-1.687
		C482.511,377.371,483.653,379.36,484.092,381.428z M375.443,288.049c5.091,1.075,10.118,2.144,15.322,2.066
		c12.041,7.814,22.659,17.605,32.253,28.246c9.413,10.441,18.06,22.259,23.808,35.191c-2.736,0.045-5.478,0.21-8.224,0.542
		c-5.055,0.611-5.114,8.618,0,8c13.604-1.645,27.075,0.785,40.626,1.781c0.188,1.213,0.322,2.434,0.326,3.656
		c-7.775,1.684-15.85,1.967-23.866,1.608c-0.498-0.237-1.079-0.379-1.753-0.379c-1.384,0-2.768,0.008-4.151,0.01
		c-2.411-0.19-4.808-0.422-7.182-0.677c-1.114-0.119-1.969,0.18-2.595,0.704c-29.389,0.135-58.775,0.595-88.164,0.624
		c-1.524-5.842-4.267-10.69-11.562-11.37c-1.198-0.111-2.402-0.165-3.61-0.197c-7.616-20.302-24.203-37.714-40.647-51.222
		c-6.772-5.563-14.033-10.643-21.979-14.352c16.011-2.171,32.06-4.285,48.135-5.012c11.639-0.526,23.267-1.211,34.922-1.039
		C363.301,286.322,369.371,286.767,375.443,288.049z M342.658,278.354c0.757-1.233,1.535-2.452,2.383-3.622
		c0.58-0.005,1.16-0.017,1.739-0.026c-0.828,1.169-1.613,2.365-2.329,3.604C343.854,278.327,343.256,278.333,342.658,278.354z
		 M346.813,278.25c0.768-1.235,1.601-2.431,2.468-3.604c0.552-0.017,1.104-0.029,1.655-0.054c-0.497,0.764-0.982,1.535-1.455,2.316
		c-0.264,0.437-0.411,0.866-0.501,1.287C348.258,278.205,347.535,278.234,346.813,278.25z M362.911,265.484
		c-15.98,2.551-32.342,0.873-48.476,0.51c-0.002-0.023,0.003-0.043,0-0.066c-0.975-10.244-1.917-20.49-2.456-30.768
		c13.507-1.013,27.041-1.585,40.554-2.497c-0.308,0.284-0.604,0.581-0.909,0.868c-1.548,0.029-3.038,0.882-3.545,2.833
		c-2.326,8.945,4.576,14.662,12.126,17.588c0.854,0.331,1.763,0.23,2.57-0.137c0.746-0.279,1.434-0.818,1.947-1.702
		c0.745-1.281,1.583-2.487,2.482-3.641C366.603,254.268,365.403,260.238,362.911,265.484z M368.993,235.247
		c-0.615,0.514-1.229,1.028-1.822,1.563c-0.015-2.055-0.015-4.108,0.059-6.159c0.703-0.56,1.415-1.108,2.127-1.657
		C369.195,231.073,369.089,233.158,368.993,235.247z M372.466,232.554c-0.468,0.343-0.939,0.681-1.397,1.033
		c0.1-2.077,0.223-4.15,0.421-6.217c0.343-0.257,0.696-0.501,1.041-0.756C372.453,228.59,372.452,230.571,372.466,232.554z
		 M408.952,203.373c0.461-0.275,0.922-0.549,1.384-0.824c-0.059,3.152-0.161,6.306-0.221,9.459c-0.549,0.301-1.094,0.604-1.65,0.902
		C408.491,209.732,408.792,206.558,408.952,203.373z M404.708,205.9c0.726-0.434,1.449-0.862,2.175-1.295
		c-0.189,3.125-0.464,6.242-0.421,9.364c-0.677,0.353-1.349,0.707-2.034,1.057C404.359,211.987,404.575,208.943,404.708,205.9z
		 M401.227,207.982c0.479-0.289,0.96-0.573,1.439-0.861c-0.131,2.966-0.287,5.923-0.169,8.883c-0.661,0.331-1.322,0.662-1.989,0.992
		C400.804,213.998,400.979,210.987,401.227,207.982z M397.798,210.041c0.442-0.27,0.889-0.531,1.332-0.8
		c-0.219,2.935-0.395,5.872-0.725,8.795c-0.827,0.407-1.653,0.813-2.485,1.223C396.496,216.176,397.131,213.105,397.798,210.041z
		 M393.75,212.513c0.565-0.35,1.134-0.691,1.7-1.038c-0.63,2.951-1.224,5.909-1.755,8.881c-0.214,0.105-0.427,0.209-0.641,0.315
		C393.204,217.935,393.281,215.193,393.75,212.513z M390.146,214.746c0.465-0.293,0.936-0.576,1.401-0.868
		c-0.295,2.581-0.331,5.198-0.517,7.807c-0.572,0.288-1.145,0.574-1.715,0.866C389.322,219.912,389.463,217.271,390.146,214.746z
		 M374.452,231.145c-0.009-2.014,0.012-4.024,0.14-6.028c0.505-0.365,1.021-0.714,1.529-1.075c-0.078,1.983-0.058,3.972,0.044,5.964
		C375.59,230.381,375.017,230.757,374.452,231.145z M379.626,227.871c-0.505,0.303-1.021,0.592-1.521,0.901
		c-0.073-2.064-0.058-4.124,0.078-6.181c0.523-0.363,1.056-0.715,1.581-1.074C379.588,223.627,379.539,225.75,379.626,227.871z
		 M383.38,225.712c-0.593,0.329-1.191,0.649-1.778,0.986c-0.042-2.224,0.057-4.445,0.323-6.649c0.564-0.378,1.136-0.747,1.702-1.121
		C383.41,221.175,383.375,223.441,383.38,225.712z M385.378,224.606c0.01-2.385,0.089-4.762,0.429-7.114
		c0.662-0.43,1.337-0.841,2.002-1.268c-0.411,2.41-0.479,4.877-0.479,7.356C386.679,223.921,386.025,224.258,385.378,224.606z"/>
</g>
</svg>
